0
SECTION
2
HEADER
9
$ACADVER
1
AC1009
0
ENDSEC
0
SECTION
2
TABLES
0
TABLE
2
VPORT
70
1
0
VPORT
2
ACTIVE
70
0
10
0.0
20
0.0
11
0.0
21
0.0
12
0.0
22
0.0
13
0.0
23
0.0
14
0.0
24
0.0
15
0.0
25
0.0
16
0.0
26
0.0
36
0.0
17
0.0
27
0.0
37
0.0
40
0.0
41
0.0
42
0.0
43
0.0
44
0.0
50
0.0
51
0.0
71
0
72
1000
73
1
74
3
75
0
76
0
77
0
78
0
0
ENDTAB
0
ENDSEC
0
SECTION
2
ENTITIES
0
LINE
8
hole
62
5
39
2
10
10.129303
20
93.172671
11
9.757915
21
93.578039
0
LINE
8
hole
62
5
39
2
10
9.757915
20
93.578039
11
9.547571
21
94.085959
0
LINE
8
hole
62
5
39
2
10
9.547571
20
94.085959
11
9.523636
21
94.635195
0
LINE
8
hole
62
5
39
2
10
9.523636
20
94.635195
11
9.689000
21
95.159514
0
LINE
8
hole
62
5
39
2
10
9.689000
20
95.159514
11
10.023715
21
95.595629
0
LINE
8
hole
62
5
39
2
10
10.023715
20
95.595629
11
10.487398
21
95.890963
0
LINE
8
hole
62
5
39
2
10
10.487398
20
95.890963
11
11.024132
21
96.009920
0
LINE
8
hole
62
5
39
2
10
11.024132
20
96.009920
11
11.569184
21
95.938106
0
LINE
8
hole
62
5
39
2
10
11.569184
20
95.938106
11
12.056811
21
95.684216
0
LINE
8
hole
62
5
39
2
10
12.056811
20
95.684216
11
12.428184
21
95.278887
0
LINE
8
hole
62
5
39
2
10
12.428184
20
95.278887
11
12.638531
21
94.770934
0
LINE
8
hole
62
5
39
2
10
12.638531
20
94.770934
11
12.662468
21
94.221698
0
LINE
8
hole
62
5
39
2
10
12.662468
20
94.221698
11
12.497101
21
93.697404
0
LINE
8
hole
62
5
39
2
10
12.497101
20
93.697404
11
12.162394
21
93.261275
0
LINE
8
hole
62
5
39
2
10
12.162394
20
93.261275
11
11.698706
21
92.965923
0
LINE
8
hole
62
5
39
2
10
11.698706
20
92.965923
11
11.161964
21
92.846974
0
LINE
8
hole
62
5
39
2
10
11.161964
20
92.846974
11
10.616917
21
92.918788
0
LINE
8
hole
62
5
39
2
10
10.616917
20
92.918788
11
10.129303
21
93.172671
0
LINE
8
hole
62
5
39
2
10
9.655541
20
10.487380
11
9.536582
21
11.024114
0
LINE
8
hole
62
5
39
2
10
9.536582
20
11.024114
11
9.608398
21
11.569163
0
LINE
8
hole
62
5
39
2
10
9.608398
20
11.569163
11
9.862288
21
12.056802
0
LINE
8
hole
62
5
39
2
10
9.862288
20
12.056802
11
10.267638
21
12.428153
0
LINE
8
hole
62
5
39
2
10
10.267638
20
12.428153
11
10.775574
21
12.638509
0
LINE
8
hole
62
5
39
2
10
10.775574
20
12.638509
11
11.324811
21
12.662439
0
LINE
8
hole
62
5
39
2
10
11.324811
20
12.662439
11
11.849115
21
12.497077
0
LINE
8
hole
62
5
39
2
10
11.849115
20
12.497077
11
12.285235
21
12.162390
0
LINE
8
hole
62
5
39
2
10
12.285235
20
12.162390
11
12.580581
21
11.698681
0
LINE
8
hole
62
5
39
2
10
12.580581
20
11.698681
11
12.699527
21
11.161946
0
LINE
8
hole
62
5
39
2
10
12.699527
20
11.161946
11
12.627724
21
10.616898
0
LINE
8
hole
62
5
39
2
10
12.627724
20
10.616898
11
12.373835
21
10.129283
0
LINE
8
hole
62
5
39
2
10
12.373835
20
10.129283
11
11.968480
21
9.757908
0
LINE
8
hole
62
5
39
2
10
11.968480
20
9.757908
11
11.460549
21
9.547561
0
LINE
8
hole
62
5
39
2
10
11.460549
20
9.547561
11
10.911314
21
9.523623
0
LINE
8
hole
62
5
39
2
10
10.911314
20
9.523623
11
10.387007
21
9.688992
0
LINE
8
hole
62
5
39
2
10
10.387007
20
9.688992
11
9.950883
21
10.023695
0
LINE
8
hole
62
5
39
2
10
9.950883
20
10.023695
11
9.655541
21
10.487380
0
LINE
8
hole
62
5
39
2
10
128.712455
20
93.662426
11
128.358062
21
94.084748
0
LINE
8
hole
62
5
39
2
10
128.358062
20
94.084748
11
128.169495
21
94.602855
0
LINE
8
hole
62
5
39
2
10
128.169495
20
94.602855
11
128.169495
21
95.154180
0
LINE
8
hole
62
5
39
2
10
128.169495
20
95.154180
11
128.358062
21
95.672254
0
LINE
8
hole
62
5
39
2
10
128.358062
20
95.672254
11
128.712455
21
96.094609
0
LINE
8
hole
62
5
39
2
10
128.712455
20
96.094609
11
129.189915
21
96.370270
0
LINE
8
hole
62
5
39
2
10
129.189915
20
96.370270
11
129.732875
21
96.466025
0
LINE
8
hole
62
5
39
2
10
129.732875
20
96.466025
11
130.275835
21
96.370270
0
LINE
8
hole
62
5
39
2
10
130.275835
20
96.370270
11
130.753301
21
96.094609
0
LINE
8
hole
62
5
39
2
10
130.753301
20
96.094609
11
131.107688
21
95.672254
0
LINE
8
hole
62
5
39
2
10
131.107688
20
95.672254
11
131.296260
21
95.154181
0
LINE
8
hole
62
5
39
2
10
131.296260
20
95.154181
11
131.296260
21
94.602854
0
LINE
8
hole
62
5
39
2
10
131.296260
20
94.602854
11
131.107688
21
94.084748
0
LINE
8
hole
62
5
39
2
10
131.107688
20
94.084748
11
130.753301
21
93.662426
0
LINE
8
hole
62
5
39
2
10
130.753301
20
93.662426
11
130.275835
21
93.386762
0
LINE
8
hole
62
5
39
2
10
130.275835
20
93.386762
11
129.732875
21
93.291010
0
LINE
8
hole
62
5
39
2
10
129.732875
20
93.291010
11
129.189915
21
93.386762
0
LINE
8
hole
62
5
39
2
10
129.189915
20
93.386762
11
128.712455
21
93.662426
0
LINE
8
hole
62
5
39
2
10
69.436708
20
93.622741
11
69.065331
21
94.028086
0
LINE
8
hole
62
5
39
2
10
69.065331
20
94.028086
11
68.854986
21
94.536031
0
LINE
8
hole
62
5
39
2
10
68.854986
20
94.536031
11
68.831054
21
95.085265
0
LINE
8
hole
62
5
39
2
10
68.831054
20
95.085265
11
68.996411
21
95.609550
0
LINE
8
hole
62
5
39
2
10
68.996411
20
95.609550
11
69.331124
21
96.045690
0
LINE
8
hole
62
5
39
2
10
69.331124
20
96.045690
11
69.794809
21
96.341040
0
LINE
8
hole
62
5
39
2
10
69.794809
20
96.341040
11
70.331550
21
96.459991
0
LINE
8
hole
62
5
39
2
10
70.331550
20
96.459991
11
70.876599
21
96.388175
0
LINE
8
hole
62
5
39
2
10
70.876599
20
96.388175
11
71.364220
21
96.134294
0
LINE
8
hole
62
5
39
2
10
71.364220
20
96.134294
11
71.735596
21
95.728924
0
LINE
8
hole
62
5
39
2
10
71.735596
20
95.728924
11
71.945942
21
95.220995
0
LINE
8
hole
62
5
39
2
10
71.945942
20
95.220995
11
71.969874
21
94.671770
0
LINE
8
hole
62
5
39
2
10
71.969874
20
94.671770
11
71.804512
21
94.147451
0
LINE
8
hole
62
5
39
2
10
71.804512
20
94.147451
11
71.469809
21
93.711344
0
LINE
8
hole
62
5
39
2
10
71.469809
20
93.711344
11
71.006119
21
93.415992
0
LINE
8
hole
62
5
39
2
10
71.006119
20
93.415992
11
70.469381
21
93.297043
0
LINE
8
hole
62
5
39
2
10
70.469381
20
93.297043
11
69.924332
21
93.368857
0
LINE
8
hole
62
5
39
2
10
69.924332
20
93.368857
11
69.436708
21
93.622741
0
LINE
8
hole
62
5
39
2
10
9.657737
20
45.988470
11
9.286361
21
46.393807
0
LINE
8
hole
62
5
39
2
10
9.286361
20
46.393807
11
9.076016
21
46.901752
0
LINE
8
hole
62
5
39
2
10
9.076016
20
46.901752
11
9.052082
21
47.450994
0
LINE
8
hole
62
5
39
2
10
9.052082
20
47.450994
11
9.217446
21
47.975281
0
LINE
8
hole
62
5
39
2
10
9.217446
20
47.975281
11
9.552147
21
48.411419
0
LINE
8
hole
62
5
39
2
10
9.552147
20
48.411419
11
10.015845
21
48.706762
0
LINE
8
hole
62
5
39
2
10
10.015845
20
48.706762
11
10.552583
21
48.825688
0
LINE
8
hole
62
5
39
2
10
10.552583
20
48.825688
11
11.097621
21
48.753898
0
LINE
8
hole
62
5
39
2
10
11.097621
20
48.753898
11
11.585261
21
48.500015
0
LINE
8
hole
62
5
39
2
10
11.585261
20
48.500015
11
11.956635
21
48.094654
0
LINE
8
hole
62
5
39
2
10
11.956635
20
48.094654
11
12.166968
21
47.586725
0
LINE
8
hole
62
5
39
2
10
12.166968
20
47.586725
11
12.190902
21
47.037499
0
LINE
8
hole
62
5
39
2
10
12.190902
20
47.037499
11
12.025552
21
46.513172
0
LINE
8
hole
62
5
39
2
10
12.025552
20
46.513172
11
11.690849
21
46.077066
0
LINE
8
hole
62
5
39
2
10
11.690849
20
46.077066
11
11.227139
21
45.781698
0
LINE
8
hole
62
5
39
2
10
11.227139
20
45.781698
11
10.690415
21
45.662740
0
LINE
8
hole
62
5
39
2
10
10.690415
20
45.662740
11
10.145367
21
45.734555
0
LINE
8
hole
62
5
39
2
10
10.145367
20
45.734555
11
9.657737
21
45.988470
0
LINE
8
hole
62
5
39
2
10
69.405045
20
9.451884
11
69.050654
21
9.874236
0
LINE
8
hole
62
5
39
2
10
69.050654
20
9.874236
11
68.862080
21
10.392309
0
LINE
8
hole
62
5
39
2
10
68.862080
20
10.392309
11
68.862080
21
10.943638
0
LINE
8
hole
62
5
39
2
10
68.862080
20
10.943638
11
69.050654
21
11.461745
0
LINE
8
hole
62
5
39
2
10
69.050654
20
11.461745
11
69.405045
21
11.884066
0
LINE
8
hole
62
5
39
2
10
69.405045
20
11.884066
11
69.882505
21
12.159728
0
LINE
8
hole
62
5
39
2
10
69.882505
20
12.159728
11
70.425470
21
12.255513
0
LINE
8
hole
62
5
39
2
10
70.425470
20
12.255513
11
70.968418
21
12.159728
0
LINE
8
hole
62
5
39
2
10
70.968418
20
12.159728
11
71.445895
21
11.884066
0
LINE
8
hole
62
5
39
2
10
71.445895
20
11.884066
11
71.800286
21
11.461745
0
LINE
8
hole
62
5
39
2
10
71.800286
20
11.461745
11
71.988852
21
10.943638
0
LINE
8
hole
62
5
39
2
10
71.988852
20
10.943638
11
71.988852
21
10.392309
0
LINE
8
hole
62
5
39
2
10
71.988852
20
10.392309
11
71.800286
21
9.874236
0
LINE
8
hole
62
5
39
2
10
71.800286
20
9.874236
11
71.445895
21
9.451884
0
LINE
8
hole
62
5
39
2
10
71.445895
20
9.451884
11
70.968418
21
9.176219
0
LINE
8
hole
62
5
39
2
10
70.968418
20
9.176219
11
70.425470
21
9.080467
0
LINE
8
hole
62
5
39
2
10
70.425470
20
9.080467
11
69.882505
21
9.176219
0
LINE
8
hole
62
5
39
2
10
69.882505
20
9.176219
11
69.405045
21
9.451884
0
LINE
8
hole
62
5
39
2
10
123.647144
20
9.817566
11
123.436805
21
10.325495
0
LINE
8
hole
62
5
39
2
10
123.436805
20
10.325495
11
123.412871
21
10.874722
0
LINE
8
hole
62
5
39
2
10
123.412871
20
10.874722
11
123.578228
21
11.399041
0
LINE
8
hole
62
5
39
2
10
123.578228
20
11.399041
11
123.912937
21
11.835156
0
LINE
8
hole
62
5
39
2
10
123.912937
20
11.835156
11
124.376626
21
12.130497
0
LINE
8
hole
62
5
39
2
10
124.376626
20
12.130497
11
124.913364
21
12.249471
0
LINE
8
hole
62
5
39
2
10
124.913364
20
12.249471
11
125.458415
21
12.177633
0
LINE
8
hole
62
5
39
2
10
125.458415
20
12.177633
11
125.946042
21
11.923751
0
LINE
8
hole
62
5
39
2
10
125.946042
20
11.923751
11
126.317419
21
11.518414
0
LINE
8
hole
62
5
39
2
10
126.317419
20
11.518414
11
126.527761
21
11.010461
0
LINE
8
hole
62
5
39
2
10
126.527761
20
11.010461
11
126.551696
21
10.461225
0
LINE
8
hole
62
5
39
2
10
126.551696
20
10.461225
11
126.386336
21
9.936939
0
LINE
8
hole
62
5
39
2
10
126.386336
20
9.936939
11
126.051628
21
9.500802
0
LINE
8
hole
62
5
39
2
10
126.051628
20
9.500802
11
125.587936
21
9.205450
0
LINE
8
hole
62
5
39
2
10
125.587936
20
9.205450
11
125.051197
21
9.086501
0
LINE
8
hole
62
5
39
2
10
125.051197
20
9.086501
11
124.506146
21
9.158314
0
LINE
8
hole
62
5
39
2
10
124.506146
20
9.158314
11
124.018524
21
9.412198
0
LINE
8
hole
62
5
39
2
10
124.018524
20
9.412198
11
123.647144
21
9.817566
0
LINE
8
hole
62
5
39
2
10
93.403343
20
17.793892
11
92.603239
21
17.793892
0
LINE
8
hole
62
5
39
2
10
92.603239
20
17.793892
11
92.603238
21
20.994280
0
LINE
8
hole
62
5
39
2
10
92.603238
20
20.994280
11
92.603239
21
30.595467
0
LINE
8
hole
62
5
39
2
10
92.603239
20
30.595467
11
93.403343
21
30.595467
0
LINE
8
hole
62
5
39
2
10
93.403343
20
30.595467
11
93.403343
21
31.195550
0
LINE
8
hole
62
5
39
2
10
93.403343
20
31.195550
11
96.903772
21
31.195550
0
LINE
8
hole
62
5
39
2
10
96.903772
20
31.195550
11
107.405086
21
31.195550
0
LINE
8
hole
62
5
39
2
10
107.405086
20
31.195550
11
107.405086
21
30.595467
0
LINE
8
hole
62
5
39
2
10
107.405086
20
30.595467
11
108.204180
21
30.595467
0
LINE
8
hole
62
5
39
2
10
108.204180
20
30.595467
11
108.204180
21
27.395079
0
LINE
8
hole
62
5
39
2
10
108.204180
20
27.395079
11
108.204180
21
17.793892
0
LINE
8
hole
62
5
39
2
10
108.204180
20
17.793892
11
107.405086
21
17.793892
0
LINE
8
hole
62
5
39
2
10
107.405086
20
17.793892
11
107.405086
21
17.193777
0
LINE
8
hole
62
5
39
2
10
107.405086
20
17.193777
11
103.904656
21
17.193777
0
LINE
8
hole
62
5
39
2
10
103.904656
20
17.193777
11
93.403343
21
17.193777
0
LINE
8
hole
62
5
39
2
10
93.403343
20
17.193777
11
93.403343
21
17.793892
0
LINE
8
hole
62
5
39
2
10
112.454717
20
17.343806
11
111.655620
21
17.793892
0
LINE
8
hole
62
5
39
2
10
111.655620
20
17.793892
11
111.655620
21
20.994280
0
LINE
8
hole
62
5
39
2
10
111.655620
20
20.994280
11
111.655620
21
30.595467
0
LINE
8
hole
62
5
39
2
10
111.655620
20
30.595467
11
112.454717
21
30.595467
0
LINE
8
hole
62
5
39
2
10
112.454717
20
30.595467
11
112.454717
21
31.195550
0
LINE
8
hole
62
5
39
2
10
112.454717
20
31.195550
11
115.955146
21
31.195550
0
LINE
8
hole
62
5
39
2
10
115.955146
20
31.195550
11
126.456458
21
31.195550
0
LINE
8
hole
62
5
39
2
10
126.456458
20
31.195550
11
126.456458
21
30.595467
0
LINE
8
hole
62
5
39
2
10
126.456458
20
30.595467
11
127.256566
21
30.595467
0
LINE
8
hole
62
5
39
2
10
127.256566
20
30.595467
11
127.256566
21
27.395079
0
LINE
8
hole
62
5
39
2
10
127.256566
20
27.395079
11
127.256566
21
17.793892
0
LINE
8
hole
62
5
39
2
10
127.256566
20
17.793892
11
126.456458
21
17.793892
0
LINE
8
hole
62
5
39
2
10
126.456458
20
17.793892
11
126.456458
21
17.193777
0
LINE
8
hole
62
5
39
2
10
126.456458
20
17.193777
11
122.956028
21
17.193777
0
LINE
8
hole
62
5
39
2
10
122.956028
20
17.193777
11
112.454717
21
17.193777
0
LINE
8
hole
62
5
39
2
10
112.454717
20
17.193777
11
112.454717
21
17.343806
0
LINE
8
hole
62
5
39
2
10
24.337706
20
55.898625
11
23.537619
21
55.898625
0
LINE
8
hole
62
5
39
2
10
23.537619
20
55.898625
11
23.537619
21
59.099021
0
LINE
8
hole
62
5
39
2
10
23.537619
20
59.099021
11
23.537619
21
68.700233
0
LINE
8
hole
62
5
39
2
10
23.537619
20
68.700233
11
24.337706
21
68.700232
0
LINE
8
hole
62
5
39
2
10
24.337706
20
68.700232
11
24.337706
21
69.300314
0
LINE
8
hole
62
5
39
2
10
24.337706
20
69.300314
11
27.838137
21
69.300314
0
LINE
8
hole
62
5
39
2
10
27.838137
20
69.300314
11
38.339453
21
69.300314
0
LINE
8
hole
62
5
39
2
10
38.339453
20
69.300314
11
38.339453
21
68.700233
0
LINE
8
hole
62
5
39
2
10
38.339453
20
68.700233
11
39.139558
21
68.700233
0
LINE
8
hole
62
5
39
2
10
39.139558
20
68.700233
11
39.139558
21
65.499836
0
LINE
8
hole
62
5
39
2
10
39.139558
20
65.499836
11
39.139558
21
55.898624
0
LINE
8
hole
62
5
39
2
10
39.139558
20
55.898624
11
38.339452
21
55.898625
0
LINE
8
hole
62
5
39
2
10
38.339452
20
55.898625
11
38.339452
21
55.298575
0
LINE
8
hole
62
5
39
2
10
38.339452
20
55.298575
11
34.839022
21
55.298575
0
LINE
8
hole
62
5
39
2
10
34.839022
20
55.298575
11
24.337706
21
55.298575
0
LINE
8
hole
62
5
39
2
10
24.337706
20
55.298575
11
24.337706
21
55.898625
0
LINE
8
hole
62
5
39
2
10
41.008787
20
36.396196
11
40.208697
21
36.846258
0
LINE
8
hole
62
5
39
2
10
40.208697
20
36.846258
11
40.208697
21
40.046655
0
LINE
8
hole
62
5
39
2
10
40.208697
20
40.046655
11
40.208697
21
49.647866
0
LINE
8
hole
62
5
39
2
10
40.208697
20
49.647866
11
41.008788
21
49.647866
0
LINE
8
hole
62
5
39
2
10
41.008788
20
49.647866
11
41.008787
21
50.247916
0
LINE
8
hole
62
5
39
2
10
41.008787
20
50.247916
11
44.509220
21
50.247916
0
LINE
8
hole
62
5
39
2
10
44.509220
20
50.247916
11
55.010542
21
50.247916
0
LINE
8
hole
62
5
39
2
10
55.010542
20
50.247916
11
55.010542
21
49.647866
0
LINE
8
hole
62
5
39
2
10
55.010542
20
49.647866
11
55.810638
21
49.647866
0
LINE
8
hole
62
5
39
2
10
55.810638
20
49.647866
11
55.810638
21
46.447470
0
LINE
8
hole
62
5
39
2
10
55.810638
20
46.447470
11
55.810638
21
36.846258
0
LINE
8
hole
62
5
39
2
10
55.810638
20
36.846258
11
55.010542
21
36.846258
0
LINE
8
hole
62
5
39
2
10
55.010542
20
36.846258
11
55.010542
21
36.246176
0
LINE
8
hole
62
5
39
2
10
55.010542
20
36.246176
11
51.510109
21
36.246176
0
LINE
8
hole
62
5
39
2
10
51.510109
20
36.246176
11
41.008787
21
36.246176
0
LINE
8
hole
62
5
39
2
10
41.008787
20
36.246176
11
41.008787
21
36.396196
0
LINE
8
hole
62
5
39
2
10
88.639747
20
55.448587
11
87.839643
21
55.898625
0
LINE
8
hole
62
5
39
2
10
87.839643
20
55.898625
11
87.839642
21
59.099021
0
LINE
8
hole
62
5
39
2
10
87.839642
20
59.099021
11
87.839643
21
68.700233
0
LINE
8
hole
62
5
39
2
10
87.839643
20
68.700233
11
88.639746
21
68.700233
0
LINE
8
hole
62
5
39
2
10
88.639746
20
68.700233
11
88.639747
21
69.300314
0
LINE
8
hole
62
5
39
2
10
88.639747
20
69.300314
11
92.140177
21
69.300314
0
LINE
8
hole
62
5
39
2
10
92.140177
20
69.300314
11
102.641493
21
69.300314
0
LINE
8
hole
62
5
39
2
10
102.641493
20
69.300314
11
102.641493
21
68.700232
0
LINE
8
hole
62
5
39
2
10
102.641493
20
68.700232
11
103.441586
21
68.700233
0
LINE
8
hole
62
5
39
2
10
103.441586
20
68.700233
11
103.441586
21
65.499836
0
LINE
8
hole
62
5
39
2
10
103.441586
20
65.499836
11
103.441586
21
55.898625
0
LINE
8
hole
62
5
39
2
10
103.441586
20
55.898625
11
102.641493
21
55.898625
0
LINE
8
hole
62
5
39
2
10
102.641493
20
55.898625
11
102.641493
21
55.298575
0
LINE
8
hole
62
5
39
2
10
102.641493
20
55.298575
11
99.141062
21
55.298575
0
LINE
8
hole
62
5
39
2
10
99.141062
20
55.298575
11
88.639747
21
55.298575
0
LINE
8
hole
62
5
39
2
10
88.639747
20
55.298575
11
88.639747
21
55.448587
0
LINE
8
hole
62
5
39
2
10
98.165934
20
36.396196
11
97.365832
21
36.846259
0
LINE
8
hole
62
5
39
2
10
97.365832
20
36.846259
11
97.365832
21
40.046655
0
LINE
8
hole
62
5
39
2
10
97.365832
20
40.046655
11
97.365832
21
49.647866
0
LINE
8
hole
62
5
39
2
10
97.365832
20
49.647866
11
98.165933
21
49.647866
0
LINE
8
hole
62
5
39
2
10
98.165933
20
49.647866
11
98.165933
21
50.247916
0
LINE
8
hole
62
5
39
2
10
98.165933
20
50.247916
11
101.666365
21
50.247916
0
LINE
8
hole
62
5
39
2
10
101.666365
20
50.247916
11
112.167683
21
50.247916
0
LINE
8
hole
62
5
39
2
10
112.167683
20
50.247916
11
112.167683
21
49.647866
0
LINE
8
hole
62
5
39
2
10
112.167683
20
49.647866
11
112.967776
21
49.647866
0
LINE
8
hole
62
5
39
2
10
112.967776
20
49.647866
11
112.967776
21
46.447469
0
LINE
8
hole
62
5
39
2
10
112.967776
20
46.447469
11
112.967776
21
36.846259
0
LINE
8
hole
62
5
39
2
10
112.967776
20
36.846259
11
112.167683
21
36.846259
0
LINE
8
hole
62
5
39
2
10
112.167683
20
36.846259
11
112.167683
21
36.246175
0
LINE
8
hole
62
5
39
2
10
112.167683
20
36.246175
11
108.667252
21
36.246176
0
LINE
8
hole
62
5
39
2
10
108.667252
20
36.246176
11
98.165934
21
36.246175
0
LINE
8
hole
62
5
39
2
10
98.165934
20
36.246175
11
98.165934
21
36.396196
0
LINE
8
hole
62
5
39
2
10
107.692121
20
55.448587
11
106.892024
21
55.898625
0
LINE
8
hole
62
5
39
2
10
106.892024
20
55.898625
11
106.892024
21
59.099021
0
LINE
8
hole
62
5
39
2
10
106.892024
20
59.099021
11
106.892024
21
68.700233
0
LINE
8
hole
62
5
39
2
10
106.892024
20
68.700233
11
107.692120
21
68.700232
0
LINE
8
hole
62
5
39
2
10
107.692120
20
68.700232
11
107.692120
21
69.300314
0
LINE
8
hole
62
5
39
2
10
107.692120
20
69.300314
11
111.192551
21
69.300314
0
LINE
8
hole
62
5
39
2
10
111.192551
20
69.300314
11
121.693867
21
69.300314
0
LINE
8
hole
62
5
39
2
10
121.693867
20
69.300314
11
121.693867
21
68.700233
0
LINE
8
hole
62
5
39
2
10
121.693867
20
68.700233
11
122.493969
21
68.700233
0
LINE
8
hole
62
5
39
2
10
122.493969
20
68.700233
11
122.493969
21
65.499836
0
LINE
8
hole
62
5
39
2
10
122.493969
20
65.499836
11
122.493970
21
55.898625
0
LINE
8
hole
62
5
39
2
10
122.493970
20
55.898625
11
121.693867
21
55.898625
0
LINE
8
hole
62
5
39
2
10
121.693867
20
55.898625
11
121.693867
21
55.298575
0
LINE
8
hole
62
5
39
2
10
121.693867
20
55.298575
11
118.193436
21
55.298575
0
LINE
8
hole
62
5
39
2
10
118.193436
20
55.298575
11
107.692120
21
55.298575
0
LINE
8
hole
62
5
39
2
10
107.692120
20
55.298575
11
107.692121
21
55.448587
0
LINE
8
hole
62
5
39
2
10
117.218310
20
36.396196
11
116.418217
21
36.846258
0
LINE
8
hole
62
5
39
2
10
116.418217
20
36.846258
11
116.418217
21
40.046655
0
LINE
8
hole
62
5
39
2
10
116.418217
20
40.046655
11
116.418217
21
49.647866
0
LINE
8
hole
62
5
39
2
10
116.418217
20
49.647866
11
117.218310
21
49.647866
0
LINE
8
hole
62
5
39
2
10
117.218310
20
49.647866
11
117.218310
21
50.247916
0
LINE
8
hole
62
5
39
2
10
117.218310
20
50.247916
11
120.718740
21
50.247916
0
LINE
8
hole
62
5
39
2
10
120.718740
20
50.247916
11
131.220054
21
50.247916
0
LINE
8
hole
62
5
39
2
10
131.220054
20
50.247916
11
131.220054
21
49.647866
0
LINE
8
hole
62
5
39
2
10
131.220054
20
49.647866
11
132.020162
21
49.647866
0
LINE
8
hole
62
5
39
2
10
132.020162
20
49.647866
11
132.020163
21
46.447469
0
LINE
8
hole
62
5
39
2
10
132.020163
20
46.447469
11
132.020162
21
36.846258
0
LINE
8
hole
62
5
39
2
10
132.020162
20
36.846258
11
131.220054
21
36.846259
0
LINE
8
hole
62
5
39
2
10
131.220054
20
36.846259
11
131.220054
21
36.246176
0
LINE
8
hole
62
5
39
2
10
131.220054
20
36.246176
11
127.719624
21
36.246175
0
LINE
8
hole
62
5
39
2
10
127.719624
20
36.246175
11
117.218310
21
36.246176
0
LINE
8
hole
62
5
39
2
10
117.218310
20
36.246176
11
117.218310
21
36.396196
0
LINE
8
hole
62
5
39
2
10
50.534985
20
55.898625
11
49.734881
21
55.898625
0
LINE
8
hole
62
5
39
2
10
49.734881
20
55.898625
11
49.734881
21
59.099021
0
LINE
8
hole
62
5
39
2
10
49.734881
20
59.099021
11
49.734881
21
68.700233
0
LINE
8
hole
62
5
39
2
10
49.734881
20
68.700233
11
50.534985
21
68.700233
0
LINE
8
hole
62
5
39
2
10
50.534985
20
68.700233
11
50.534985
21
69.300314
0
LINE
8
hole
62
5
39
2
10
50.534985
20
69.300314
11
54.035414
21
69.300314
0
LINE
8
hole
62
5
39
2
10
54.035414
20
69.300314
11
64.536723
21
69.300314
0
LINE
8
hole
62
5
39
2
10
64.536723
20
69.300314
11
64.536723
21
68.700233
0
LINE
8
hole
62
5
39
2
10
64.536723
20
68.700233
11
65.336828
21
68.700233
0
LINE
8
hole
62
5
39
2
10
65.336828
20
68.700233
11
65.336828
21
65.499836
0
LINE
8
hole
62
5
39
2
10
65.336828
20
65.499836
11
65.336828
21
55.898625
0
LINE
8
hole
62
5
39
2
10
65.336828
20
55.898625
11
64.536723
21
55.898625
0
LINE
8
hole
62
5
39
2
10
64.536723
20
55.898625
11
64.536723
21
55.298575
0
LINE
8
hole
62
5
39
2
10
64.536723
20
55.298575
11
61.036295
21
55.298575
0
LINE
8
hole
62
5
39
2
10
61.036295
20
55.298575
11
50.534985
21
55.298575
0
LINE
8
hole
62
5
39
2
10
50.534985
20
55.298575
11
50.534985
21
55.898625
0
LINE
8
hole
62
5
39
2
10
69.587366
20
55.448587
11
68.787261
21
55.898625
0
LINE
8
hole
62
5
39
2
10
68.787261
20
55.898625
11
68.787261
21
59.099021
0
LINE
8
hole
62
5
39
2
10
68.787261
20
59.099021
11
68.787261
21
68.700233
0
LINE
8
hole
62
5
39
2
10
68.787261
20
68.700233
11
69.587366
21
68.700233
0
LINE
8
hole
62
5
39
2
10
69.587366
20
68.700233
11
69.587366
21
69.300314
0
LINE
8
hole
62
5
39
2
10
69.587366
20
69.300314
11
73.087796
21
69.300314
0
LINE
8
hole
62
5
39
2
10
73.087796
20
69.300314
11
83.589112
21
69.300314
0
LINE
8
hole
62
5
39
2
10
83.589112
20
69.300314
11
83.589112
21
68.700233
0
LINE
8
hole
62
5
39
2
10
83.589112
20
68.700233
11
84.389209
21
68.700233
0
LINE
8
hole
62
5
39
2
10
84.389209
20
68.700233
11
84.389209
21
65.499836
0
LINE
8
hole
62
5
39
2
10
84.389209
20
65.499836
11
84.389209
21
55.898625
0
LINE
8
hole
62
5
39
2
10
84.389209
20
55.898625
11
83.589112
21
55.898625
0
LINE
8
hole
62
5
39
2
10
83.589112
20
55.898625
11
83.589112
21
55.298575
0
LINE
8
hole
62
5
39
2
10
83.589112
20
55.298575
11
80.088681
21
55.298575
0
LINE
8
hole
62
5
39
2
10
80.088681
20
55.298575
11
69.587366
21
55.298575
0
LINE
8
hole
62
5
39
2
10
69.587366
20
55.298575
11
69.587366
21
55.448587
0
LINE
8
hole
62
5
39
2
10
60.061175
20
36.396196
11
59.261071
21
36.846259
0
LINE
8
hole
62
5
39
2
10
59.261071
20
36.846259
11
59.261071
21
40.046655
0
LINE
8
hole
62
5
39
2
10
59.261071
20
40.046655
11
59.261071
21
49.647866
0
LINE
8
hole
62
5
39
2
10
59.261071
20
49.647866
11
60.061175
21
49.647866
0
LINE
8
hole
62
5
39
2
10
60.061175
20
49.647866
11
60.061175
21
50.247916
0
LINE
8
hole
62
5
39
2
10
60.061175
20
50.247916
11
63.561606
21
50.247916
0
LINE
8
hole
62
5
39
2
10
63.561606
20
50.247916
11
74.062922
21
50.247916
0
LINE
8
hole
62
5
39
2
10
74.062922
20
50.247916
11
74.062922
21
49.647866
0
LINE
8
hole
62
5
39
2
10
74.062922
20
49.647866
11
74.863018
21
49.647866
0
LINE
8
hole
62
5
39
2
10
74.863018
20
49.647866
11
74.863018
21
46.447469
0
LINE
8
hole
62
5
39
2
10
74.863018
20
46.447469
11
74.863018
21
36.846258
0
LINE
8
hole
62
5
39
2
10
74.863018
20
36.846258
11
74.062922
21
36.846258
0
LINE
8
hole
62
5
39
2
10
74.062922
20
36.846258
11
74.062922
21
36.246176
0
LINE
8
hole
62
5
39
2
10
74.062922
20
36.246176
11
70.562491
21
36.246176
0
LINE
8
hole
62
5
39
2
10
70.562491
20
36.246176
11
60.061175
21
36.246176
0
LINE
8
hole
62
5
39
2
10
60.061175
20
36.246176
11
60.061175
21
36.396196
0
LINE
8
hole
62
5
39
2
10
19.575118
20
36.846259
11
18.775016
21
36.846259
0
LINE
8
hole
62
5
39
2
10
18.775016
20
36.846259
11
18.775016
21
40.046655
0
LINE
8
hole
62
5
39
2
10
18.775016
20
40.046655
11
18.775016
21
49.647866
0
LINE
8
hole
62
5
39
2
10
18.775016
20
49.647866
11
19.575118
21
49.647866
0
LINE
8
hole
62
5
39
2
10
19.575118
20
49.647866
11
19.575118
21
50.247916
0
LINE
8
hole
62
5
39
2
10
19.575118
20
50.247916
11
23.075547
21
50.247916
0
LINE
8
hole
62
5
39
2
10
23.075547
20
50.247916
11
33.576859
21
50.247916
0
LINE
8
hole
62
5
39
2
10
33.576859
20
50.247916
11
33.576859
21
49.647866
0
LINE
8
hole
62
5
39
2
10
33.576859
20
49.647866
11
34.376964
21
49.647866
0
LINE
8
hole
62
5
39
2
10
34.376964
20
49.647866
11
34.376964
21
46.447469
0
LINE
8
hole
62
5
39
2
10
34.376964
20
46.447469
11
34.376964
21
36.846259
0
LINE
8
hole
62
5
39
2
10
34.376964
20
36.846259
11
33.576859
21
36.846258
0
LINE
8
hole
62
5
39
2
10
33.576859
20
36.846258
11
33.576859
21
36.246175
0
LINE
8
hole
62
5
39
2
10
33.576859
20
36.246175
11
30.076430
21
36.246176
0
LINE
8
hole
62
5
39
2
10
30.076430
20
36.246176
11
19.575118
21
36.246176
0
LINE
8
hole
62
5
39
2
10
19.575118
20
36.246176
11
19.575118
21
36.846259
0
LINE
8
hole
62
5
39
2
10
126.744497
20
55.898625
11
125.944401
21
55.898625
0
LINE
8
hole
62
5
39
2
10
125.944401
20
55.898625
11
125.944401
21
59.099021
0
LINE
8
hole
62
5
39
2
10
125.944401
20
59.099021
11
125.944401
21
68.700232
0
LINE
8
hole
62
5
39
2
10
125.944401
20
68.700232
11
126.744497
21
68.700233
0
LINE
8
hole
62
5
39
2
10
126.744497
20
68.700233
11
126.744497
21
69.300314
0
LINE
8
hole
62
5
39
2
10
126.744497
20
69.300314
11
130.244930
21
69.300314
0
LINE
8
hole
62
5
39
2
10
130.244930
20
69.300314
11
140.746253
21
69.300314
0
LINE
8
hole
62
5
39
2
10
140.746253
20
69.300314
11
140.746253
21
68.700232
0
LINE
8
hole
62
5
39
2
10
140.746253
20
68.700232
11
141.546349
21
68.700232
0
LINE
8
hole
62
5
39
2
10
141.546349
20
68.700232
11
141.546349
21
65.499836
0
LINE
8
hole
62
5
39
2
10
141.546349
20
65.499836
11
141.546349
21
55.898625
0
LINE
8
hole
62
5
39
2
10
141.546349
20
55.898625
11
140.746253
21
55.898625
0
LINE
8
hole
62
5
39
2
10
140.746253
20
55.898625
11
140.746253
21
55.298575
0
LINE
8
hole
62
5
39
2
10
140.746253
20
55.298575
11
137.245820
21
55.298575
0
LINE
8
hole
62
5
39
2
10
137.245820
20
55.298575
11
126.744497
21
55.298575
0
LINE
8
hole
62
5
39
2
10
126.744497
20
55.298575
11
126.744497
21
55.898625
0
LINE
8
hole
62
5
39
2
10
79.113556
20
36.846258
11
78.313452
21
36.846258
0
LINE
8
hole
62
5
39
2
10
78.313452
20
36.846258
11
78.313452
21
40.046655
0
LINE
8
hole
62
5
39
2
10
78.313452
20
40.046655
11
78.313452
21
49.647866
0
LINE
8
hole
62
5
39
2
10
78.313452
20
49.647866
11
79.113556
21
49.647866
0
LINE
8
hole
62
5
39
2
10
79.113556
20
49.647866
11
79.113556
21
50.247916
0
LINE
8
hole
62
5
39
2
10
79.113556
20
50.247916
11
82.613986
21
50.247916
0
LINE
8
hole
62
5
39
2
10
82.613986
20
50.247916
11
93.115298
21
50.247916
0
LINE
8
hole
62
5
39
2
10
93.115298
20
50.247916
11
93.115299
21
49.647866
0
LINE
8
hole
62
5
39
2
10
93.115299
20
49.647866
11
93.915404
21
49.647866
0
LINE
8
hole
62
5
39
2
10
93.915404
20
49.647866
11
93.915404
21
46.447469
0
LINE
8
hole
62
5
39
2
10
93.915404
20
46.447469
11
93.915404
21
36.846259
0
LINE
8
hole
62
5
39
2
10
93.915404
20
36.846259
11
93.115299
21
36.846258
0
LINE
8
hole
62
5
39
2
10
93.115299
20
36.846258
11
93.115298
21
36.246176
0
LINE
8
hole
62
5
39
2
10
93.115298
20
36.246176
11
89.614869
21
36.246176
0
LINE
8
hole
62
5
39
2
10
89.614869
20
36.246176
11
79.113556
21
36.246175
0
LINE
8
hole
62
5
39
2
10
79.113556
20
36.246175
11
79.113556
21
36.846258
0
LINE
8
hole
62
5
39
2
10
36.246191
20
17.793892
11
35.446103
21
17.793892
0
LINE
8
hole
62
5
39
2
10
35.446103
20
17.793892
11
35.446103
21
20.994280
0
LINE
8
hole
62
5
39
2
10
35.446103
20
20.994280
11
35.446103
21
30.595467
0
LINE
8
hole
62
5
39
2
10
35.446103
20
30.595467
11
36.246191
21
30.595467
0
LINE
8
hole
62
5
39
2
10
36.246191
20
30.595467
11
36.246191
21
31.195550
0
LINE
8
hole
62
5
39
2
10
36.246191
20
31.195550
11
39.746624
21
31.195550
0
LINE
8
hole
62
5
39
2
10
39.746624
20
31.195550
11
50.247946
21
31.195550
0
LINE
8
hole
62
5
39
2
10
50.247946
20
31.195550
11
50.247946
21
30.595467
0
LINE
8
hole
62
5
39
2
10
50.247946
20
30.595467
11
51.048043
21
30.595467
0
LINE
8
hole
62
5
39
2
10
51.048043
20
30.595467
11
51.048043
21
27.395079
0
LINE
8
hole
62
5
39
2
10
51.048043
20
27.395079
11
51.048043
21
17.793892
0
LINE
8
hole
62
5
39
2
10
51.048043
20
17.793892
11
50.247946
21
17.793892
0
LINE
8
hole
62
5
39
2
10
50.247946
20
17.793892
11
50.247946
21
17.193777
0
LINE
8
hole
62
5
39
2
10
50.247946
20
17.193777
11
46.747513
21
17.193777
0
LINE
8
hole
62
5
39
2
10
46.747513
20
17.193777
11
36.246191
21
17.193777
0
LINE
8
hole
62
5
39
2
10
36.246191
20
17.193777
11
36.246191
21
17.793892
0
LINE
8
hole
62
5
39
2
10
74.350962
20
17.793892
11
73.550857
21
17.793892
0
LINE
8
hole
62
5
39
2
10
73.550857
20
17.793892
11
73.550857
21
20.994280
0
LINE
8
hole
62
5
39
2
10
73.550857
20
20.994280
11
73.550857
21
30.595467
0
LINE
8
hole
62
5
39
2
10
73.550857
20
30.595467
11
74.350962
21
30.595467
0
LINE
8
hole
62
5
39
2
10
74.350962
20
30.595467
11
74.350962
21
31.195550
0
LINE
8
hole
62
5
39
2
10
74.350962
20
31.195550
11
77.851393
21
31.195550
0
LINE
8
hole
62
5
39
2
10
77.851393
20
31.195550
11
88.352709
21
31.195550
0
LINE
8
hole
62
5
39
2
10
88.352709
20
31.195550
11
88.352709
21
30.595467
0
LINE
8
hole
62
5
39
2
10
88.352709
20
30.595467
11
89.152804
21
30.595467
0
LINE
8
hole
62
5
39
2
10
89.152804
20
30.595467
11
89.152804
21
27.395078
0
LINE
8
hole
62
5
39
2
10
89.152804
20
27.395078
11
89.152804
21
17.793892
0
LINE
8
hole
62
5
39
2
10
89.152804
20
17.793892
11
88.352709
21
17.793892
0
LINE
8
hole
62
5
39
2
10
88.352709
20
17.793892
11
88.352709
21
17.193777
0
LINE
8
hole
62
5
39
2
10
88.352709
20
17.193777
11
84.852278
21
17.193777
0
LINE
8
hole
62
5
39
2
10
84.852278
20
17.193777
11
74.350962
21
17.193777
0
LINE
8
hole
62
5
39
2
10
74.350962
20
17.193777
11
74.350962
21
17.793892
0
LINE
8
hole
62
5
39
2
10
55.298572
20
17.793892
11
54.498476
21
17.793892
0
LINE
8
hole
62
5
39
2
10
54.498476
20
17.793892
11
54.498475
21
20.994280
0
LINE
8
hole
62
5
39
2
10
54.498475
20
20.994280
11
54.498476
21
30.595467
0
LINE
8
hole
62
5
39
2
10
54.498476
20
30.595467
11
55.298572
21
30.595467
0
LINE
8
hole
62
5
39
2
10
55.298572
20
30.595467
11
55.298572
21
31.195550
0
LINE
8
hole
62
5
39
2
10
55.298572
20
31.195550
11
58.799003
21
31.195550
0
LINE
8
hole
62
5
39
2
10
58.799003
20
31.195550
11
69.300319
21
31.195550
0
LINE
8
hole
62
5
39
2
10
69.300319
20
31.195550
11
69.300319
21
30.595467
0
LINE
8
hole
62
5
39
2
10
69.300319
20
30.595467
11
70.100424
21
30.595467
0
LINE
8
hole
62
5
39
2
10
70.100424
20
30.595467
11
70.100424
21
27.395078
0
LINE
8
hole
62
5
39
2
10
70.100424
20
27.395078
11
70.100424
21
17.793892
0
LINE
8
hole
62
5
39
2
10
70.100424
20
17.793892
11
69.300319
21
17.793892
0
LINE
8
hole
62
5
39
2
10
69.300319
20
17.793892
11
69.300319
21
17.193777
0
LINE
8
hole
62
5
39
2
10
69.300319
20
17.193777
11
65.799889
21
17.193778
0
LINE
8
hole
62
5
39
2
10
65.799889
20
17.193778
11
55.298572
21
17.193778
0
LINE
8
hole
62
5
39
2
10
55.298572
20
17.193778
11
55.298572
21
17.793892
0
LINE
8
hole
62
5
39
2
10
17.193826
20
17.793892
11
16.393705
21
17.793892
0
LINE
8
hole
62
5
39
2
10
16.393705
20
17.793892
11
16.393705
21
20.994280
0
LINE
8
hole
62
5
39
2
10
16.393705
20
20.994280
11
16.393705
21
30.595467
0
LINE
8
hole
62
5
39
2
10
16.393705
20
30.595467
11
17.193826
21
30.595467
0
LINE
8
hole
62
5
39
2
10
17.193826
20
30.595467
11
17.193826
21
31.195550
0
LINE
8
hole
62
5
39
2
10
17.193826
20
31.195550
11
20.694257
21
31.195550
0
LINE
8
hole
62
5
39
2
10
20.694257
20
31.195550
11
31.195575
21
31.195550
0
LINE
8
hole
62
5
39
2
10
31.195575
20
31.195550
11
31.195575
21
30.595467
0
LINE
8
hole
62
5
39
2
10
31.195575
20
30.595467
11
31.995672
21
30.595467
0
LINE
8
hole
62
5
39
2
10
31.995672
20
30.595467
11
31.995672
21
27.395078
0
LINE
8
hole
62
5
39
2
10
31.995672
20
27.395078
11
31.995672
21
17.793892
0
LINE
8
hole
62
5
39
2
10
31.995672
20
17.793892
11
31.195575
21
17.793892
0
LINE
8
hole
62
5
39
2
10
31.195575
20
17.793892
11
31.195575
21
17.193777
0
LINE
8
hole
62
5
39
2
10
31.195575
20
17.193777
11
27.695144
21
17.193778
0
LINE
8
hole
62
5
39
2
10
27.695144
20
17.193778
11
17.193826
21
17.193777
0
LINE
8
hole
62
5
39
2
10
17.193826
20
17.193777
11
17.193826
21
17.793892
0
LINE
8
hole
62
5
39
2
10
93.996402
20
73.845878
11
93.996402
21
74.580975
0
LINE
8
hole
62
5
39
2
10
93.996402
20
74.580975
11
92.271194
21
74.580975
0
LINE
8
hole
62
5
39
2
10
92.271194
20
74.580975
11
92.271194
21
76.148670
0
LINE
8
hole
62
5
39
2
10
92.271194
20
76.148670
11
92.271194
21
80.851765
0
LINE
8
hole
62
5
39
2
10
92.271194
20
80.851765
11
91.446096
21
80.851765
0
LINE
8
hole
62
5
39
2
10
91.446096
20
80.851765
11
91.446096
21
81.551849
0
LINE
8
hole
62
5
39
2
10
91.446096
20
81.551849
11
91.446096
21
83.652106
0
LINE
8
hole
62
5
39
2
10
91.446096
20
83.652106
11
92.271194
21
83.652106
0
LINE
8
hole
62
5
39
2
10
92.271194
20
83.652106
11
92.271194
21
84.459708
0
LINE
8
hole
62
5
39
2
10
92.271194
20
84.459708
11
92.271194
21
86.882520
0
LINE
8
hole
62
5
39
2
10
92.271194
20
86.882520
11
93.996402
21
86.882520
0
LINE
8
hole
62
5
39
2
10
93.996402
20
86.882520
11
93.996402
21
87.803633
0
LINE
8
hole
62
5
39
2
10
93.996402
20
87.803633
11
94.821506
21
87.803633
0
LINE
8
hole
62
5
39
2
10
94.821506
20
87.803633
11
97.296823
21
87.803633
0
LINE
8
hole
62
5
39
2
10
97.296823
20
87.803633
11
97.296823
21
86.882520
0
LINE
8
hole
62
5
39
2
10
97.296823
20
86.882520
11
98.760003
21
86.882520
0
LINE
8
hole
62
5
39
2
10
98.760003
20
86.882520
11
98.760003
21
87.803633
0
LINE
8
hole
62
5
39
2
10
98.760003
20
87.803633
11
100.547229
21
87.803633
0
LINE
8
hole
62
5
39
2
10
100.547229
20
87.803633
11
100.547229
21
88.352712
0
LINE
8
hole
62
5
39
2
10
100.547229
20
88.352712
11
105.238557
21
88.352712
0
LINE
8
hole
62
5
39
2
10
105.238557
20
88.352712
11
119.312571
21
88.352712
0
LINE
8
hole
62
5
39
2
10
119.312571
20
88.352712
11
119.312571
21
87.803633
0
LINE
8
hole
62
5
39
2
10
119.312571
20
87.803633
11
121.099802
21
87.803633
0
LINE
8
hole
62
5
39
2
10
121.099802
20
87.803633
11
121.099802
21
86.882520
0
LINE
8
hole
62
5
39
2
10
121.099802
20
86.882520
11
122.562979
21
86.882520
0
LINE
8
hole
62
5
39
2
10
122.562979
20
86.882520
11
122.562979
21
87.803633
0
LINE
8
hole
62
5
39
2
10
122.562979
20
87.803633
11
123.388082
21
87.803633
0
LINE
8
hole
62
5
39
2
10
123.388082
20
87.803633
11
125.863398
21
87.803633
0
LINE
8
hole
62
5
39
2
10
125.863398
20
87.803633
11
125.863398
21
86.882520
0
LINE
8
hole
62
5
39
2
10
125.863398
20
86.882520
11
127.588608
21
86.882520
0
LINE
8
hole
62
5
39
2
10
127.588608
20
86.882520
11
127.588608
21
86.074917
0
LINE
8
hole
62
5
39
2
10
127.588608
20
86.074917
11
127.588608
21
83.652106
0
LINE
8
hole
62
5
39
2
10
127.588608
20
83.652106
11
128.413709
21
83.652106
0
LINE
8
hole
62
5
39
2
10
128.413709
20
83.652106
11
128.413709
21
82.952022
0
LINE
8
hole
62
5
39
2
10
128.413709
20
82.952022
11
128.413709
21
80.851765
0
LINE
8
hole
62
5
39
2
10
128.413709
20
80.851765
11
127.588607
21
80.851765
0
LINE
8
hole
62
5
39
2
10
127.588607
20
80.851765
11
127.588608
21
79.284070
0
LINE
8
hole
62
5
39
2
10
127.588608
20
79.284070
11
127.588608
21
74.580975
0
LINE
8
hole
62
5
39
2
10
127.588608
20
74.580975
11
125.863398
21
74.580975
0
LINE
8
hole
62
5
39
2
10
125.863398
20
74.580975
11
125.863398
21
73.600847
0
LINE
8
hole
62
5
39
2
10
125.863398
20
73.600847
11
125.038295
21
73.600846
0
LINE
8
hole
62
5
39
2
10
125.038295
20
73.600846
11
122.562979
21
73.600847
0
LINE
8
hole
62
5
39
2
10
122.562979
20
73.600847
11
122.562979
21
74.580975
0
LINE
8
hole
62
5
39
2
10
122.562979
20
74.580975
11
121.099802
21
74.580975
0
LINE
8
hole
62
5
39
2
10
121.099802
20
74.580975
11
121.099802
21
73.600847
0
LINE
8
hole
62
5
39
2
10
121.099802
20
73.600847
11
120.274699
21
73.600846
0
LINE
8
hole
62
5
39
2
10
120.274699
20
73.600846
11
117.799383
21
73.600847
0
LINE
8
hole
62
5
39
2
10
117.799383
20
73.600847
11
117.799382
21
74.350973
0
LINE
8
hole
62
5
39
2
10
117.799382
20
74.350973
11
113.864648
21
74.350973
0
LINE
8
hole
62
5
39
2
10
113.864648
20
74.350973
11
102.060418
21
74.350973
0
LINE
8
hole
62
5
39
2
10
102.060418
20
74.350973
11
102.060418
21
73.600846
0
LINE
8
hole
62
5
39
2
10
102.060418
20
73.600846
11
101.235316
21
73.600846
0
LINE
8
hole
62
5
39
2
10
101.235316
20
73.600846
11
98.760003
21
73.600847
0
LINE
8
hole
62
5
39
2
10
98.760003
20
73.600847
11
98.760003
21
74.580975
0
LINE
8
hole
62
5
39
2
10
98.760003
20
74.580975
11
97.296823
21
74.580975
0
LINE
8
hole
62
5
39
2
10
97.296823
20
74.580975
11
97.296823
21
73.600846
0
LINE
8
hole
62
5
39
2
10
97.296823
20
73.600846
11
96.471719
21
73.600846
0
LINE
8
hole
62
5
39
2
10
96.471719
20
73.600846
11
93.996402
21
73.600846
0
LINE
8
hole
62
5
39
2
10
93.996402
20
73.600846
11
93.996402
21
73.845878
0
LINE
8
hole
62
5
39
2
10
17.193826
20
74.500733
11
16.393705
21
74.950013
0
LINE
8
hole
62
5
39
2
10
16.393705
20
74.950013
11
16.393705
21
78.150662
0
LINE
8
hole
62
5
39
2
10
16.393705
20
78.150662
11
16.393705
21
87.752631
0
LINE
8
hole
62
5
39
2
10
16.393705
20
87.752631
11
17.193826
21
87.752631
0
LINE
8
hole
62
5
39
2
10
17.193826
20
87.752631
11
17.193826
21
88.352712
0
LINE
8
hole
62
5
39
2
10
17.193826
20
88.352712
11
34.983516
21
88.352712
0
LINE
8
hole
62
5
39
2
10
34.983516
20
88.352712
11
88.352709
21
88.352712
0
LINE
8
hole
62
5
39
2
10
88.352709
20
88.352712
11
88.352709
21
87.752631
0
LINE
8
hole
62
5
39
2
10
88.352709
20
87.752631
11
89.152804
21
87.752631
0
LINE
8
hole
62
5
39
2
10
89.152804
20
87.752631
11
89.152804
21
84.551982
0
LINE
8
hole
62
5
39
2
10
89.152804
20
84.551982
11
89.152804
21
74.950013
0
LINE
8
hole
62
5
39
2
10
89.152804
20
74.950013
11
88.352709
21
74.950013
0
LINE
8
hole
62
5
39
2
10
88.352709
20
74.950013
11
88.352709
21
74.350973
0
LINE
8
hole
62
5
39
2
10
88.352709
20
74.350973
11
70.563018
21
74.350973
0
LINE
8
hole
62
5
39
2
10
70.563018
20
74.350973
11
17.193826
21
74.350973
0
LINE
8
hole
62
5
39
2
10
17.193826
20
74.350973
11
17.193826
21
74.500733
0
LINE
8
boundary
62
5
39
2
10
6.980935
20
7.256866
11
7.363954
21
6.905937
0
LINE
8
boundary
62
5
39
2
10
7.363954
20
6.905937
11
7.843888
21
6.707186
0
LINE
8
boundary
62
5
39
2
10
7.843888
20
6.707186
11
37.996121
21
6.667500
0
LINE
8
boundary
62
5
39
2
10
37.996121
20
6.667500
11
127.482189
21
6.667500
0
LINE
8
boundary
62
5
39
2
10
127.482189
20
6.667500
11
127.995214
21
6.757944
0
LINE
8
boundary
62
5
39
2
10
127.995214
20
6.757944
11
128.446368
21
7.018396
0
LINE
8
boundary
62
5
39
2
10
128.446368
20
7.018396
11
128.781225
21
7.417497
0
LINE
8
boundary
62
5
39
2
10
128.781225
20
7.417497
11
128.959400
21
7.907008
0
LINE
8
boundary
62
5
39
2
10
128.959400
20
7.907008
11
128.982182
21
14.105092
0
LINE
8
boundary
62
5
39
2
10
128.982182
20
14.105092
11
128.982182
21
31.917929
0
LINE
8
boundary
62
5
39
2
10
128.982182
20
31.917929
11
129.024087
21
32.437402
0
LINE
8
boundary
62
5
39
2
10
129.024087
20
32.437402
11
129.196806
21
32.915750
0
LINE
8
boundary
62
5
39
2
10
129.196806
20
32.915750
11
129.541748
21
33.331184
0
LINE
8
boundary
62
5
39
2
10
129.541748
20
33.331184
11
129.996081
21
33.604478
0
LINE
8
boundary
62
5
39
2
10
129.996081
20
33.604478
11
130.498453
21
33.710294
0
LINE
8
boundary
62
5
39
2
10
130.498453
20
33.710294
11
131.032590
21
33.814352
0
LINE
8
boundary
62
5
39
2
10
131.032590
20
33.814352
11
131.568933
21
33.820866
0
LINE
8
boundary
62
5
39
2
10
131.568933
20
33.820866
11
132.409262
21
33.820866
0
LINE
8
boundary
62
5
39
2
10
132.409262
20
33.820866
11
132.909850
21
33.918369
0
LINE
8
boundary
62
5
39
2
10
132.909850
20
33.918369
11
133.331948
21
34.253568
0
LINE
8
boundary
62
5
39
2
10
133.331948
20
34.253568
11
133.616760
21
34.703068
0
LINE
8
boundary
62
5
39
2
10
133.616760
20
34.703068
11
133.737069
21
35.257970
0
LINE
8
boundary
62
5
39
2
10
133.737069
20
35.257970
11
133.745275
21
39.376817
0
LINE
8
boundary
62
5
39
2
10
133.745275
20
39.376817
11
133.745275
21
50.935999
0
LINE
8
boundary
62
5
39
2
10
133.745275
20
50.935999
11
133.791681
21
51.516313
0
LINE
8
boundary
62
5
39
2
10
133.791681
20
51.516313
11
133.974101
21
51.994457
0
LINE
8
boundary
62
5
39
2
10
133.974101
20
51.994457
11
134.327646
21
52.404305
0
LINE
8
boundary
62
5
39
2
10
134.327646
20
52.404305
11
134.786309
21
52.667820
0
LINE
8
boundary
62
5
39
2
10
134.786309
20
52.667820
11
135.302449
21
52.776991
0
LINE
8
boundary
62
5
39
2
10
135.302449
20
52.776991
11
135.843288
21
52.869454
0
LINE
8
boundary
62
5
39
2
10
135.843288
20
52.869454
11
137.553000
21
52.873232
0
LINE
8
boundary
62
5
39
2
10
137.553000
20
52.873232
11
141.968053
21
52.873232
0
LINE
8
boundary
62
5
39
2
10
141.968053
20
52.873232
11
142.490915
21
53.002164
0
LINE
8
boundary
62
5
39
2
10
142.490915
20
53.002164
11
142.900671
21
53.354845
0
LINE
8
boundary
62
5
39
2
10
142.900671
20
53.354845
11
143.164599
21
53.812788
0
LINE
8
boundary
62
5
39
2
10
143.164599
20
53.812788
11
143.266369
21
54.359124
0
LINE
8
boundary
62
5
39
2
10
143.266369
20
54.359124
11
143.271468
21
58.408217
0
LINE
8
boundary
62
5
39
2
10
143.271468
20
58.408217
11
143.271468
21
70.019306
0
LINE
8
boundary
62
5
39
2
10
143.271468
20
70.019306
11
143.230785
21
70.536347
0
LINE
8
boundary
62
5
39
2
10
143.230785
20
70.536347
11
143.008736
21
71.100757
0
LINE
8
boundary
62
5
39
2
10
143.008736
20
71.100757
11
142.638682
21
71.497088
0
LINE
8
boundary
62
5
39
2
10
142.638682
20
71.497088
11
142.172837
21
71.739108
0
LINE
8
boundary
62
5
39
2
10
142.172837
20
71.739108
11
141.614157
21
71.823625
0
LINE
8
boundary
62
5
39
2
10
141.614157
20
71.823625
11
139.982933
21
71.825644
0
LINE
8
boundary
62
5
39
2
10
139.982933
20
71.825644
11
135.569001
21
71.825645
0
LINE
8
boundary
62
5
39
2
10
135.569001
20
71.825645
11
134.976729
21
71.877331
0
LINE
8
boundary
62
5
39
2
10
134.976729
20
71.877331
11
134.499771
21
72.069357
0
LINE
8
boundary
62
5
39
2
10
134.499771
20
72.069357
11
134.095817
21
72.430384
0
LINE
8
boundary
62
5
39
2
10
134.095817
20
72.430384
11
133.841896
21
72.892471
0
LINE
8
boundary
62
5
39
2
10
133.841896
20
72.892471
11
133.748176
21
73.458227
0
LINE
8
boundary
62
5
39
2
10
133.748176
20
73.458227
11
133.745275
21
79.612303
0
LINE
8
boundary
62
5
39
2
10
133.745275
20
79.612303
11
133.745275
21
97.378996
0
LINE
8
boundary
62
5
39
2
10
133.745275
20
97.378996
11
133.647955
21
97.900498
0
LINE
8
boundary
62
5
39
2
10
133.647955
20
97.900498
11
133.299850
21
98.445725
0
LINE
8
boundary
62
5
39
2
10
133.299850
20
98.445725
11
132.860577
21
98.743144
0
LINE
8
boundary
62
5
39
2
10
132.860577
20
98.743144
11
132.287244
21
98.874920
0
LINE
8
boundary
62
5
39
2
10
132.287244
20
98.874920
11
127.711979
21
98.878974
0
LINE
8
boundary
62
5
39
2
10
127.711979
20
98.878974
11
126.586781
21
98.878974
0
LINE
8
boundary
62
5
39
2
10
126.586781
20
98.878974
11
111.292611
21
98.879226
0
LINE
8
boundary
62
5
39
2
10
111.292611
20
98.879226
11
71.051323
21
98.879934
0
LINE
8
boundary
62
5
39
2
10
71.051323
20
98.879934
11
23.910924
21
98.879934
0
LINE
8
boundary
62
5
39
2
10
23.910924
20
98.879934
11
8.197494
21
98.879934
0
LINE
8
boundary
62
5
39
2
10
8.197494
20
98.879934
11
7.560693
21
98.748097
0
LINE
8
boundary
62
5
39
2
10
7.560693
20
98.748097
11
7.117491
21
98.451427
0
LINE
8
boundary
62
5
39
2
10
7.117491
20
98.451427
11
6.765865
21
97.904366
0
LINE
8
boundary
62
5
39
2
10
6.765865
20
97.904366
11
6.667500
21
97.380235
0
LINE
8
boundary
62
5
39
2
10
6.667500
20
97.380235
11
6.667500
21
75.077087
0
LINE
8
boundary
62
5
39
2
10
6.667500
20
75.077087
11
6.667500
21
8.167493
0
LINE
8
boundary
62
5
39
2
10
6.667500
20
8.167493
11
6.757962
21
7.654468
0
LINE
8
boundary
62
5
39
2
10
6.757962
20
7.654468
11
6.980935
21
7.256866
0
LINE
8
annotation
62
1
39
211
10
15.249544
20
57.879801
11
15.249544
21
77.552740
0
LINE
8
annotation
62
1
39
211
10
15.249544
20
77.552740
11
10.875997
21
73.177960
0
LINE
8
frame
62
5
39
2
10
0.000000
20
0.000000
11
304.800000
21
0.000000
0
LINE
8
frame
62
5
39
2
10
304.800000
20
0.000000
11
304.800000
21
304.800000
0
LINE
8
frame
62
5
39
2
10
304.800000
20
304.800000
11
0.000000
21
304.800000
0
LINE
8
frame
62
5
39
2
10
0.000000
20
304.800000
11
0.000000
21
0.000000
0
ENDSEC
0
EOF
