0
SECTION
2
HEADER
9
$ACADVER
1
AC1009
0
ENDSEC
0
SECTION
2
TABLES
0
TABLE
2
VPORT
70
1
0
VPORT
2
ACTIVE
70
0
10
0.0
20
0.0
11
0.0
21
0.0
12
0.0
22
0.0
13
0.0
23
0.0
14
0.0
24
0.0
15
0.0
25
0.0
16
0.0
26
0.0
36
0.0
17
0.0
27
0.0
37
0.0
40
0.0
41
0.0
42
0.0
43
0.0
44
0.0
50
0.0
51
0.0
71
0
72
1000
73
1
74
3
75
0
76
0
77
0
78
0
0
ENDTAB
0
ENDSEC
0
SECTION
2
ENTITIES
0
LINE
8
hole
62
5
39
2
10
10.935741
20
131.701341
11
10.435363
21
132.295507
0
LINE
8
hole
62
5
39
2
10
10.435363
20
132.295507
11
10.159375
21
133.037919
0
LINE
8
hole
62
5
39
2
10
10.159375
20
133.037919
11
10.153939
21
133.829888
0
LINE
8
hole
62
5
39
2
10
10.153939
20
133.829888
11
10.419708
21
134.575972
0
LINE
8
hole
62
5
39
2
10
10.419708
20
134.575972
11
10.924629
21
135.186188
0
LINE
8
hole
62
5
39
2
10
10.924629
20
135.186188
11
11.607800
21
135.586903
0
LINE
8
hole
62
5
39
2
10
11.607800
20
135.586903
11
12.386821
21
135.729765
0
LINE
8
hole
62
5
39
2
10
12.386821
20
135.729765
11
13.167724
21
135.597613
0
LINE
8
hole
62
5
39
2
10
13.167724
20
135.597613
11
13.856331
21
135.206314
0
LINE
8
hole
62
5
39
2
10
13.856331
20
135.206314
11
14.369583
21
134.603090
0
LINE
8
hole
62
5
39
2
10
14.369583
20
134.603090
11
14.645571
21
133.860721
0
LINE
8
hole
62
5
39
2
10
14.645571
20
133.860721
11
14.651007
21
133.068755
0
LINE
8
hole
62
5
39
2
10
14.651007
20
133.068755
11
14.385239
21
132.322621
0
LINE
8
hole
62
5
39
2
10
14.385239
20
132.322621
11
13.880317
21
131.712455
0
LINE
8
hole
62
5
39
2
10
13.880317
20
131.712455
11
13.197146
21
131.311738
0
LINE
8
hole
62
5
39
2
10
13.197146
20
131.311738
11
12.418131
21
131.168876
0
LINE
8
hole
62
5
39
2
10
12.418131
20
131.168876
11
11.637222
21
131.301028
0
LINE
8
hole
62
5
39
2
10
11.637222
20
131.301028
11
10.948615
21
131.692327
0
LINE
8
hole
62
5
39
2
10
10.948615
20
131.692327
11
10.935741
21
131.701341
0
LINE
8
hole
62
5
39
2
10
106.509951
20
131.692327
11
105.996705
21
132.295507
0
LINE
8
hole
62
5
39
2
10
105.996705
20
132.295507
11
105.720712
21
133.037919
0
LINE
8
hole
62
5
39
2
10
105.720712
20
133.037919
11
105.715275
21
133.829888
0
LINE
8
hole
62
5
39
2
10
105.715275
20
133.829888
11
105.981050
21
134.575972
0
LINE
8
hole
62
5
39
2
10
105.981050
20
134.575972
11
106.485966
21
135.186189
0
LINE
8
hole
62
5
39
2
10
106.485966
20
135.186189
11
107.169137
21
135.586903
0
LINE
8
hole
62
5
39
2
10
107.169137
20
135.586903
11
107.948157
21
135.729765
0
LINE
8
hole
62
5
39
2
10
107.948157
20
135.729765
11
108.729066
21
135.597613
0
LINE
8
hole
62
5
39
2
10
108.729066
20
135.597613
11
109.417674
21
135.206314
0
LINE
8
hole
62
5
39
2
10
109.417674
20
135.206314
11
109.930920
21
134.603090
0
LINE
8
hole
62
5
39
2
10
109.930920
20
134.603090
11
110.206907
21
133.860720
0
LINE
8
hole
62
5
39
2
10
110.206907
20
133.860720
11
110.212344
21
133.068755
0
LINE
8
hole
62
5
39
2
10
110.212344
20
133.068755
11
109.946575
21
132.322621
0
LINE
8
hole
62
5
39
2
10
109.946575
20
132.322621
11
109.441659
21
131.712454
0
LINE
8
hole
62
5
39
2
10
109.441659
20
131.712454
11
108.758488
21
131.311738
0
LINE
8
hole
62
5
39
2
10
108.758488
20
131.311738
11
107.979467
21
131.168876
0
LINE
8
hole
62
5
39
2
10
107.979467
20
131.168876
11
107.198559
21
131.301028
0
LINE
8
hole
62
5
39
2
10
107.198559
20
131.301028
11
106.509951
21
131.692327
0
LINE
8
hole
62
5
39
2
10
202.022473
20
11.306267
11
201.522106
21
11.900480
0
LINE
8
hole
62
5
39
2
10
201.522106
20
11.900480
11
201.246113
21
12.642845
0
LINE
8
hole
62
5
39
2
10
201.246113
20
12.642845
11
201.240676
21
13.434861
0
LINE
8
hole
62
5
39
2
10
201.240676
20
13.434861
11
201.506451
21
14.180898
0
LINE
8
hole
62
5
39
2
10
201.506451
20
14.180898
11
202.011361
21
14.791115
0
LINE
8
hole
62
5
39
2
10
202.011361
20
14.791115
11
202.694538
21
15.191832
0
LINE
8
hole
62
5
39
2
10
202.694538
20
15.191832
11
203.473552
21
15.334738
0
LINE
8
hole
62
5
39
2
10
203.473552
20
15.334738
11
204.254467
21
15.202539
0
LINE
8
hole
62
5
39
2
10
204.254467
20
15.202539
11
204.943069
21
14.811242
0
LINE
8
hole
62
5
39
2
10
204.943069
20
14.811242
11
205.456320
21
14.208016
0
LINE
8
hole
62
5
39
2
10
205.456320
20
14.208016
11
205.732302
21
13.465693
0
LINE
8
hole
62
5
39
2
10
205.732302
20
13.465693
11
205.737739
21
12.673682
0
LINE
8
hole
62
5
39
2
10
205.737739
20
12.673682
11
205.471976
21
11.927594
0
LINE
8
hole
62
5
39
2
10
205.471976
20
11.927594
11
204.967054
21
11.317381
0
LINE
8
hole
62
5
39
2
10
204.967054
20
11.317381
11
204.283889
21
10.916711
0
LINE
8
hole
62
5
39
2
10
204.283889
20
10.916711
11
203.504863
21
10.773802
0
LINE
8
hole
62
5
39
2
10
203.504863
20
10.773802
11
202.723960
21
10.906001
0
LINE
8
hole
62
5
39
2
10
202.723960
20
10.906001
11
202.035346
21
11.297253
0
LINE
8
hole
62
5
39
2
10
202.035346
20
11.297253
11
202.022473
21
11.306267
0
LINE
8
hole
62
5
39
2
10
17.554747
20
10.940640
11
17.165150
21
11.612693
0
LINE
8
hole
62
5
39
2
10
17.165150
20
11.612693
11
17.022265
21
12.391707
0
LINE
8
hole
62
5
39
2
10
17.022265
20
12.391707
11
17.154441
21
13.172609
0
LINE
8
hole
62
5
39
2
10
17.154441
20
13.172609
11
17.545734
21
13.861213
0
LINE
8
hole
62
5
39
2
10
17.545734
20
13.861213
11
18.148941
21
14.374440
0
LINE
8
hole
62
5
39
2
10
18.148941
20
14.374440
11
18.891314
21
14.650445
0
LINE
8
hole
62
5
39
2
10
18.891314
20
14.650445
11
19.683311
21
14.655883
0
LINE
8
hole
62
5
39
2
10
19.683311
20
14.655883
11
20.429403
21
14.390095
0
LINE
8
hole
62
5
39
2
10
20.429403
20
14.390095
11
21.039600
21
13.885197
0
LINE
8
hole
62
5
39
2
10
21.039600
20
13.885197
11
21.440304
21
13.202033
0
LINE
8
hole
62
5
39
2
10
21.440304
20
13.202033
11
21.583189
21
12.423017
0
LINE
8
hole
62
5
39
2
10
21.583189
20
12.423017
11
21.451013
21
11.642115
0
LINE
8
hole
62
5
39
2
10
21.451013
20
11.642115
11
21.059726
21
10.953513
0
LINE
8
hole
62
5
39
2
10
21.059726
20
10.953513
11
20.456519
21
10.440237
0
LINE
8
hole
62
5
39
2
10
20.456519
20
10.440237
11
19.714146
21
10.164232
0
LINE
8
hole
62
5
39
2
10
19.714146
20
10.164232
11
18.922149
21
10.158796
0
LINE
8
hole
62
5
39
2
10
18.922149
20
10.158796
11
18.176057
21
10.424582
0
LINE
8
hole
62
5
39
2
10
18.176057
20
10.424582
11
17.565860
21
10.929527
0
LINE
8
hole
62
5
39
2
10
17.565860
20
10.929527
11
17.554747
21
10.940640
0
LINE
8
hole
62
5
39
2
10
201.716405
20
131.360501
11
201.315701
21
132.043667
0
LINE
8
hole
62
5
39
2
10
201.315701
20
132.043667
11
201.172805
21
132.822728
0
LINE
8
hole
62
5
39
2
10
201.172805
20
132.822728
11
201.304992
21
133.603586
0
LINE
8
hole
62
5
39
2
10
201.304992
20
133.603586
11
201.696278
21
134.292232
0
LINE
8
hole
62
5
39
2
10
201.696278
20
134.292232
11
202.299492
21
134.805507
0
LINE
8
hole
62
5
39
2
10
202.299492
20
134.805507
11
203.041859
21
135.081466
0
LINE
8
hole
62
5
39
2
10
203.041859
20
135.081466
11
203.833850
21
135.086902
0
LINE
8
hole
62
5
39
2
10
203.833850
20
135.086902
11
204.579948
21
134.821163
0
LINE
8
hole
62
5
39
2
10
204.579948
20
134.821163
11
205.190139
21
134.316218
0
LINE
8
hole
62
5
39
2
10
205.190139
20
134.316218
11
205.590844
21
133.633006
0
LINE
8
hole
62
5
39
2
10
205.590844
20
133.633006
11
205.733728
21
132.854040
0
LINE
8
hole
62
5
39
2
10
205.733728
20
132.854040
11
205.601552
21
132.073089
0
LINE
8
hole
62
5
39
2
10
205.601552
20
132.073089
11
205.210266
21
131.384487
0
LINE
8
hole
62
5
39
2
10
205.210266
20
131.384487
11
204.607063
21
130.871259
0
LINE
8
hole
62
5
39
2
10
204.607063
20
130.871259
11
203.864685
21
130.595253
0
LINE
8
hole
62
5
39
2
10
203.864685
20
130.595253
11
203.072694
21
130.589817
0
LINE
8
hole
62
5
39
2
10
203.072694
20
130.589817
11
202.326608
21
130.855603
0
LINE
8
hole
62
5
39
2
10
202.326608
20
130.855603
11
201.716405
21
131.360501
0
LINE
8
hole
62
5
39
2
10
106.509951
20
10.686293
11
105.996706
21
11.289517
0
LINE
8
hole
62
5
39
2
10
105.996706
20
11.289517
11
105.720712
21
12.031886
0
LINE
8
hole
62
5
39
2
10
105.720712
20
12.031886
11
105.715275
21
12.823900
0
LINE
8
hole
62
5
39
2
10
105.715275
20
12.823900
11
105.981050
21
13.569940
0
LINE
8
hole
62
5
39
2
10
105.981050
20
13.569940
11
106.485966
21
14.180201
0
LINE
8
hole
62
5
39
2
10
106.485966
20
14.180201
11
107.169136
21
14.580871
0
LINE
8
hole
62
5
39
2
10
107.169136
20
14.580871
11
107.948157
21
14.723777
0
LINE
8
hole
62
5
39
2
10
107.948157
20
14.723777
11
108.729066
21
14.591578
0
LINE
8
hole
62
5
39
2
10
108.729066
20
14.591578
11
109.417674
21
14.200328
0
LINE
8
hole
62
5
39
2
10
109.417674
20
14.200328
11
109.930920
21
13.597055
0
LINE
8
hole
62
5
39
2
10
109.930920
20
13.597055
11
110.206907
21
12.854735
0
LINE
8
hole
62
5
39
2
10
110.206907
20
12.854735
11
110.212344
21
12.062721
0
LINE
8
hole
62
5
39
2
10
110.212344
20
12.062721
11
109.946575
21
11.316635
0
LINE
8
hole
62
5
39
2
10
109.946575
20
11.316635
11
109.441659
21
10.706418
0
LINE
8
hole
62
5
39
2
10
109.441659
20
10.706418
11
108.758488
21
10.305750
0
LINE
8
hole
62
5
39
2
10
108.758488
20
10.305750
11
107.979468
21
10.162797
0
LINE
8
hole
62
5
39
2
10
107.979468
20
10.162797
11
107.198559
21
10.295042
0
LINE
8
hole
62
5
39
2
10
107.198559
20
10.295042
11
106.509951
21
10.686293
0
LINE
8
hole
62
5
39
2
10
202.878658
20
62.225737
11
202.282698
21
62.724040
0
LINE
8
hole
62
5
39
2
10
202.282698
20
62.724040
11
201.881994
21
63.407206
0
LINE
8
hole
62
5
39
2
10
201.881994
20
63.407206
11
201.739121
21
64.186220
0
LINE
8
hole
62
5
39
2
10
201.739121
20
64.186220
11
201.871285
21
64.967124
0
LINE
8
hole
62
5
39
2
10
201.871285
20
64.967124
11
202.262572
21
65.655772
0
LINE
8
hole
62
5
39
2
10
202.262572
20
65.655772
11
202.865785
21
66.168999
0
LINE
8
hole
62
5
39
2
10
202.865785
20
66.168999
11
203.608152
21
66.444958
0
LINE
8
hole
62
5
39
2
10
203.608152
20
66.444958
11
204.400155
21
66.450394
0
LINE
8
hole
62
5
39
2
10
204.400155
20
66.450394
11
205.146253
21
66.184655
0
LINE
8
hole
62
5
39
2
10
205.146253
20
66.184655
11
205.756445
21
65.679756
0
LINE
8
hole
62
5
39
2
10
205.756445
20
65.679756
11
206.157148
21
64.996546
0
LINE
8
hole
62
5
39
2
10
206.157148
20
64.996546
11
206.300044
21
64.217532
0
LINE
8
hole
62
5
39
2
10
206.300044
20
64.217532
11
206.167857
21
63.436628
0
LINE
8
hole
62
5
39
2
10
206.167857
20
63.436628
11
205.776570
21
62.748026
0
LINE
8
hole
62
5
39
2
10
205.776570
20
62.748026
11
205.173369
21
62.234750
0
LINE
8
hole
62
5
39
2
10
205.173369
20
62.234750
11
204.430990
21
61.958745
0
LINE
8
hole
62
5
39
2
10
204.430990
20
61.958745
11
203.638987
21
61.953309
0
LINE
8
hole
62
5
39
2
10
203.638987
20
61.953309
11
202.892901
21
62.219095
0
LINE
8
hole
62
5
39
2
10
202.892901
20
62.219095
11
202.878658
21
62.225737
0
LINE
8
hole
62
5
39
2
10
112.992508
20
49.218798
11
112.992508
21
50.047216
0
LINE
8
hole
62
5
39
2
10
112.992508
20
50.047216
11
111.842476
21
50.047217
0
LINE
8
hole
62
5
39
2
10
111.842476
20
50.047217
11
111.842476
21
50.774231
0
LINE
8
hole
62
5
39
2
10
111.842476
20
50.774231
11
111.842476
21
68.447934
0
LINE
8
hole
62
5
39
2
10
111.842476
20
68.447934
11
112.992509
21
68.447935
0
LINE
8
hole
62
5
39
2
10
112.992509
20
68.447935
11
112.992508
21
69.310430
0
LINE
8
hole
62
5
39
2
10
112.992508
20
69.310430
11
113.787679
21
69.310430
0
LINE
8
hole
62
5
39
2
10
113.787679
20
69.310430
11
133.118261
21
69.310430
0
LINE
8
hole
62
5
39
2
10
133.118261
20
69.310430
11
133.118261
21
68.447934
0
LINE
8
hole
62
5
39
2
10
133.118261
20
68.447934
11
134.268299
21
68.447934
0
LINE
8
hole
62
5
39
2
10
134.268299
20
68.447934
11
134.268299
21
67.720920
0
LINE
8
hole
62
5
39
2
10
134.268299
20
67.720920
11
134.268299
21
50.047217
0
LINE
8
hole
62
5
39
2
10
134.268299
20
50.047217
11
133.118260
21
50.047216
0
LINE
8
hole
62
5
39
2
10
133.118260
20
50.047216
11
133.118260
21
49.184721
0
LINE
8
hole
62
5
39
2
10
133.118260
20
49.184721
11
132.323089
21
49.184721
0
LINE
8
hole
62
5
39
2
10
132.323089
20
49.184721
11
112.992509
21
49.184721
0
LINE
8
hole
62
5
39
2
10
112.992509
20
49.184721
11
112.992508
21
49.218798
0
LINE
8
hole
62
5
39
2
10
30.836362
20
49.218798
11
30.836362
21
50.047217
0
LINE
8
hole
62
5
39
2
10
30.836362
20
50.047217
11
29.686317
21
50.047217
0
LINE
8
hole
62
5
39
2
10
29.686317
20
50.047217
11
29.686317
21
50.774231
0
LINE
8
hole
62
5
39
2
10
29.686317
20
50.774231
11
29.686317
21
68.447934
0
LINE
8
hole
62
5
39
2
10
29.686317
20
68.447934
11
30.836362
21
68.447935
0
LINE
8
hole
62
5
39
2
10
30.836362
20
68.447935
11
30.836362
21
69.310430
0
LINE
8
hole
62
5
39
2
10
30.836362
20
69.310430
11
31.631532
21
69.310430
0
LINE
8
hole
62
5
39
2
10
31.631532
20
69.310430
11
50.962101
21
69.310430
0
LINE
8
hole
62
5
39
2
10
50.962101
20
69.310430
11
50.962101
21
68.447935
0
LINE
8
hole
62
5
39
2
10
50.962101
20
68.447935
11
52.112146
21
68.447935
0
LINE
8
hole
62
5
39
2
10
52.112146
20
68.447935
11
52.112146
21
67.720920
0
LINE
8
hole
62
5
39
2
10
52.112146
20
67.720920
11
52.112147
21
50.047217
0
LINE
8
hole
62
5
39
2
10
52.112147
20
50.047217
11
50.962102
21
50.047217
0
LINE
8
hole
62
5
39
2
10
50.962102
20
50.047217
11
50.962102
21
49.184721
0
LINE
8
hole
62
5
39
2
10
50.962102
20
49.184721
11
50.166931
21
49.184721
0
LINE
8
hole
62
5
39
2
10
50.166931
20
49.184721
11
30.836362
21
49.184721
0
LINE
8
hole
62
5
39
2
10
30.836362
20
49.184721
11
30.836362
21
49.218798
0
LINE
8
hole
62
5
39
2
10
85.607134
20
50.047217
11
84.457083
21
50.047217
0
LINE
8
hole
62
5
39
2
10
84.457083
20
50.047217
11
84.457083
21
50.774231
0
LINE
8
hole
62
5
39
2
10
84.457083
20
50.774231
11
84.457083
21
68.447934
0
LINE
8
hole
62
5
39
2
10
84.457083
20
68.447934
11
85.607134
21
68.447934
0
LINE
8
hole
62
5
39
2
10
85.607134
20
68.447934
11
85.607134
21
69.310430
0
LINE
8
hole
62
5
39
2
10
85.607134
20
69.310430
11
86.402305
21
69.310430
0
LINE
8
hole
62
5
39
2
10
86.402305
20
69.310430
11
105.732874
21
69.310430
0
LINE
8
hole
62
5
39
2
10
105.732874
20
69.310430
11
105.732874
21
68.447935
0
LINE
8
hole
62
5
39
2
10
105.732874
20
68.447935
11
106.882913
21
68.447935
0
LINE
8
hole
62
5
39
2
10
106.882913
20
68.447935
11
106.882913
21
67.720920
0
LINE
8
hole
62
5
39
2
10
106.882913
20
67.720920
11
106.882913
21
50.047217
0
LINE
8
hole
62
5
39
2
10
106.882913
20
50.047217
11
105.732874
21
50.047217
0
LINE
8
hole
62
5
39
2
10
105.732874
20
50.047217
11
105.732874
21
49.184721
0
LINE
8
hole
62
5
39
2
10
105.732874
20
49.184721
11
104.937704
21
49.184721
0
LINE
8
hole
62
5
39
2
10
104.937704
20
49.184721
11
85.607134
21
49.184721
0
LINE
8
hole
62
5
39
2
10
85.607134
20
49.184721
11
85.607134
21
50.047217
0
LINE
8
hole
62
5
39
2
10
58.221742
20
49.218798
11
58.221742
21
50.047217
0
LINE
8
hole
62
5
39
2
10
58.221742
20
50.047217
11
57.071703
21
50.047216
0
LINE
8
hole
62
5
39
2
10
57.071703
20
50.047216
11
57.071703
21
50.774231
0
LINE
8
hole
62
5
39
2
10
57.071703
20
50.774231
11
57.071703
21
68.447935
0
LINE
8
hole
62
5
39
2
10
57.071703
20
68.447935
11
58.221742
21
68.447934
0
LINE
8
hole
62
5
39
2
10
58.221742
20
68.447934
11
58.221742
21
69.310430
0
LINE
8
hole
62
5
39
2
10
58.221742
20
69.310430
11
59.016913
21
69.310430
0
LINE
8
hole
62
5
39
2
10
59.016913
20
69.310430
11
78.347488
21
69.310430
0
LINE
8
hole
62
5
39
2
10
78.347488
20
69.310430
11
78.347488
21
68.447934
0
LINE
8
hole
62
5
39
2
10
78.347488
20
68.447934
11
79.497533
21
68.447934
0
LINE
8
hole
62
5
39
2
10
79.497533
20
68.447934
11
79.497533
21
67.720920
0
LINE
8
hole
62
5
39
2
10
79.497533
20
67.720920
11
79.497533
21
50.047216
0
LINE
8
hole
62
5
39
2
10
79.497533
20
50.047216
11
78.347488
21
50.047216
0
LINE
8
hole
62
5
39
2
10
78.347488
20
50.047216
11
78.347488
21
49.184721
0
LINE
8
hole
62
5
39
2
10
78.347488
20
49.184721
11
77.552317
21
49.184721
0
LINE
8
hole
62
5
39
2
10
77.552317
20
49.184721
11
58.221742
21
49.184721
0
LINE
8
hole
62
5
39
2
10
58.221742
20
49.184721
11
58.221742
21
49.218798
0
LINE
8
hole
62
5
39
2
10
37.683424
20
103.989536
11
37.683424
21
104.818001
0
LINE
8
hole
62
5
39
2
10
37.683424
20
104.818001
11
36.533386
21
104.818001
0
LINE
8
hole
62
5
39
2
10
36.533386
20
104.818001
11
36.533385
21
105.545016
0
LINE
8
hole
62
5
39
2
10
36.533385
20
105.545016
11
36.533385
21
123.218719
0
LINE
8
hole
62
5
39
2
10
36.533385
20
123.218719
11
37.683424
21
123.218719
0
LINE
8
hole
62
5
39
2
10
37.683424
20
123.218719
11
37.683424
21
124.081215
0
LINE
8
hole
62
5
39
2
10
37.683424
20
124.081215
11
38.478595
21
124.081215
0
LINE
8
hole
62
5
39
2
10
38.478595
20
124.081215
11
57.809167
21
124.081215
0
LINE
8
hole
62
5
39
2
10
57.809167
20
124.081215
11
57.809167
21
123.218719
0
LINE
8
hole
62
5
39
2
10
57.809167
20
123.218719
11
58.959209
21
123.218719
0
LINE
8
hole
62
5
39
2
10
58.959209
20
123.218719
11
58.959209
21
122.491705
0
LINE
8
hole
62
5
39
2
10
58.959209
20
122.491705
11
58.959209
21
104.818001
0
LINE
8
hole
62
5
39
2
10
58.959209
20
104.818001
11
57.809167
21
104.818002
0
LINE
8
hole
62
5
39
2
10
57.809167
20
104.818002
11
57.809167
21
103.955457
0
LINE
8
hole
62
5
39
2
10
57.809167
20
103.955457
11
57.013997
21
103.955457
0
LINE
8
hole
62
5
39
2
10
57.013997
20
103.955457
11
37.683424
21
103.955457
0
LINE
8
hole
62
5
39
2
10
37.683424
20
103.955457
11
37.683424
21
103.989536
0
LINE
8
hole
62
5
39
2
10
92.454191
20
104.818001
11
91.304152
21
104.818001
0
LINE
8
hole
62
5
39
2
10
91.304152
20
104.818001
11
91.304152
21
105.545016
0
LINE
8
hole
62
5
39
2
10
91.304152
20
105.545016
11
91.304152
21
123.218719
0
LINE
8
hole
62
5
39
2
10
91.304152
20
123.218719
11
92.454191
21
123.218719
0
LINE
8
hole
62
5
39
2
10
92.454191
20
123.218719
11
92.454191
21
124.081215
0
LINE
8
hole
62
5
39
2
10
92.454191
20
124.081215
11
93.249362
21
124.081215
0
LINE
8
hole
62
5
39
2
10
93.249362
20
124.081215
11
112.579943
21
124.081215
0
LINE
8
hole
62
5
39
2
10
112.579943
20
124.081215
11
112.579943
21
123.218719
0
LINE
8
hole
62
5
39
2
10
112.579943
20
123.218719
11
113.729976
21
123.218719
0
LINE
8
hole
62
5
39
2
10
113.729976
20
123.218719
11
113.729976
21
122.491705
0
LINE
8
hole
62
5
39
2
10
113.729976
20
122.491705
11
113.729976
21
104.818001
0
LINE
8
hole
62
5
39
2
10
113.729976
20
104.818001
11
112.579943
21
104.818001
0
LINE
8
hole
62
5
39
2
10
112.579943
20
104.818001
11
112.579943
21
103.955457
0
LINE
8
hole
62
5
39
2
10
112.579943
20
103.955457
11
111.784772
21
103.955457
0
LINE
8
hole
62
5
39
2
10
111.784772
20
103.955457
11
92.454191
21
103.955457
0
LINE
8
hole
62
5
39
2
10
92.454191
20
103.955457
11
92.454191
21
104.818001
0
LINE
8
hole
62
5
39
2
10
65.068808
20
104.818001
11
63.918769
21
104.818001
0
LINE
8
hole
62
5
39
2
10
63.918769
20
104.818001
11
63.918769
21
105.545016
0
LINE
8
hole
62
5
39
2
10
63.918769
20
105.545016
11
63.918769
21
123.218719
0
LINE
8
hole
62
5
39
2
10
63.918769
20
123.218719
11
65.068808
21
123.218719
0
LINE
8
hole
62
5
39
2
10
65.068808
20
123.218719
11
65.068808
21
124.081215
0
LINE
8
hole
62
5
39
2
10
65.068808
20
124.081215
11
65.863978
21
124.081215
0
LINE
8
hole
62
5
39
2
10
65.863978
20
124.081215
11
85.194550
21
124.081215
0
LINE
8
hole
62
5
39
2
10
85.194550
20
124.081215
11
85.194551
21
123.218719
0
LINE
8
hole
62
5
39
2
10
85.194551
20
123.218719
11
86.344595
21
123.218719
0
LINE
8
hole
62
5
39
2
10
86.344595
20
123.218719
11
86.344595
21
122.491705
0
LINE
8
hole
62
5
39
2
10
86.344595
20
122.491705
11
86.344595
21
104.818001
0
LINE
8
hole
62
5
39
2
10
86.344595
20
104.818001
11
85.194550
21
104.818001
0
LINE
8
hole
62
5
39
2
10
85.194550
20
104.818001
11
85.194551
21
103.955457
0
LINE
8
hole
62
5
39
2
10
85.194551
20
103.955457
11
84.399380
21
103.955457
0
LINE
8
hole
62
5
39
2
10
84.399380
20
103.955457
11
65.068808
21
103.955457
0
LINE
8
hole
62
5
39
2
10
65.068808
20
103.955457
11
65.068808
21
104.818001
0
LINE
8
hole
62
5
39
2
10
119.839577
20
104.818002
11
118.689538
21
104.818001
0
LINE
8
hole
62
5
39
2
10
118.689538
20
104.818001
11
118.689538
21
105.545016
0
LINE
8
hole
62
5
39
2
10
118.689538
20
105.545016
11
118.689538
21
123.218719
0
LINE
8
hole
62
5
39
2
10
118.689538
20
123.218719
11
119.839577
21
123.218719
0
LINE
8
hole
62
5
39
2
10
119.839577
20
123.218719
11
119.839577
21
124.081215
0
LINE
8
hole
62
5
39
2
10
119.839577
20
124.081215
11
120.634748
21
124.081215
0
LINE
8
hole
62
5
39
2
10
120.634748
20
124.081215
11
139.965323
21
124.081215
0
LINE
8
hole
62
5
39
2
10
139.965323
20
124.081215
11
139.965323
21
123.218719
0
LINE
8
hole
62
5
39
2
10
139.965323
20
123.218719
11
141.115374
21
123.218719
0
LINE
8
hole
62
5
39
2
10
141.115374
20
123.218719
11
141.115374
21
122.491705
0
LINE
8
hole
62
5
39
2
10
141.115374
20
122.491705
11
141.115374
21
104.818001
0
LINE
8
hole
62
5
39
2
10
141.115374
20
104.818001
11
139.965323
21
104.818001
0
LINE
8
hole
62
5
39
2
10
139.965323
20
104.818001
11
139.965323
21
103.955457
0
LINE
8
hole
62
5
39
2
10
139.965323
20
103.955457
11
139.170152
21
103.955457
0
LINE
8
hole
62
5
39
2
10
139.170152
20
103.955457
11
119.839577
21
103.955457
0
LINE
8
hole
62
5
39
2
10
119.839577
20
103.955457
11
119.839577
21
104.818002
0
LINE
8
hole
62
5
39
2
10
17.143665
20
76.604144
11
17.143665
21
77.432609
0
LINE
8
hole
62
5
39
2
10
17.143665
20
77.432609
11
15.993627
21
77.432609
0
LINE
8
hole
62
5
39
2
10
15.993627
20
77.432609
11
15.993627
21
78.159622
0
LINE
8
hole
62
5
39
2
10
15.993627
20
78.159622
11
15.993627
21
95.833278
0
LINE
8
hole
62
5
39
2
10
15.993627
20
95.833278
11
17.143665
21
95.833278
0
LINE
8
hole
62
5
39
2
10
17.143665
20
95.833278
11
17.143666
21
96.695871
0
LINE
8
hole
62
5
39
2
10
17.143666
20
96.695871
11
17.938836
21
96.695871
0
LINE
8
hole
62
5
39
2
10
17.938836
20
96.695871
11
37.269411
21
96.695871
0
LINE
8
hole
62
5
39
2
10
37.269411
20
96.695871
11
37.269411
21
95.833278
0
LINE
8
hole
62
5
39
2
10
37.269411
20
95.833278
11
38.419450
21
95.833278
0
LINE
8
hole
62
5
39
2
10
38.419450
20
95.833278
11
38.419450
21
95.106266
0
LINE
8
hole
62
5
39
2
10
38.419450
20
95.106266
11
38.419450
21
77.432609
0
LINE
8
hole
62
5
39
2
10
38.419450
20
77.432609
11
37.269411
21
77.432609
0
LINE
8
hole
62
5
39
2
10
37.269411
20
77.432609
11
37.269411
21
76.570065
0
LINE
8
hole
62
5
39
2
10
37.269411
20
76.570065
11
36.474241
21
76.570065
0
LINE
8
hole
62
5
39
2
10
36.474241
20
76.570065
11
17.143665
21
76.570065
0
LINE
8
hole
62
5
39
2
10
17.143665
20
76.570065
11
17.143665
21
76.604144
0
LINE
8
hole
62
5
39
2
10
126.685199
20
77.432609
11
125.535172
21
77.432609
0
LINE
8
hole
62
5
39
2
10
125.535172
20
77.432609
11
125.535172
21
78.159621
0
LINE
8
hole
62
5
39
2
10
125.535172
20
78.159621
11
125.535172
21
95.833278
0
LINE
8
hole
62
5
39
2
10
125.535172
20
95.833278
11
126.685199
21
95.833279
0
LINE
8
hole
62
5
39
2
10
126.685199
20
95.833279
11
126.685199
21
96.695871
0
LINE
8
hole
62
5
39
2
10
126.685199
20
96.695871
11
127.480370
21
96.695871
0
LINE
8
hole
62
5
39
2
10
127.480370
20
96.695871
11
146.810957
21
96.695871
0
LINE
8
hole
62
5
39
2
10
146.810957
20
96.695871
11
146.810957
21
95.833278
0
LINE
8
hole
62
5
39
2
10
146.810957
20
95.833278
11
147.960995
21
95.833279
0
LINE
8
hole
62
5
39
2
10
147.960995
20
95.833279
11
147.960995
21
95.106266
0
LINE
8
hole
62
5
39
2
10
147.960995
20
95.106266
11
147.960996
21
77.432609
0
LINE
8
hole
62
5
39
2
10
147.960996
20
77.432609
11
146.810957
21
77.432609
0
LINE
8
hole
62
5
39
2
10
146.810957
20
77.432609
11
146.810957
21
76.570065
0
LINE
8
hole
62
5
39
2
10
146.810957
20
76.570065
11
146.015785
21
76.570065
0
LINE
8
hole
62
5
39
2
10
146.015785
20
76.570065
11
126.685199
21
76.570065
0
LINE
8
hole
62
5
39
2
10
126.685199
20
76.570065
11
126.685199
21
77.432609
0
LINE
8
hole
62
5
39
2
10
71.914438
20
77.432609
11
70.764396
21
77.432609
0
LINE
8
hole
62
5
39
2
10
70.764396
20
77.432609
11
70.764396
21
78.159621
0
LINE
8
hole
62
5
39
2
10
70.764396
20
78.159621
11
70.764396
21
95.833279
0
LINE
8
hole
62
5
39
2
10
70.764396
20
95.833279
11
71.914438
21
95.833278
0
LINE
8
hole
62
5
39
2
10
71.914438
20
95.833278
11
71.914438
21
96.695871
0
LINE
8
hole
62
5
39
2
10
71.914438
20
96.695871
11
72.709609
21
96.695871
0
LINE
8
hole
62
5
39
2
10
72.709609
20
96.695871
11
92.040184
21
96.695871
0
LINE
8
hole
62
5
39
2
10
92.040184
20
96.695871
11
92.040184
21
95.833278
0
LINE
8
hole
62
5
39
2
10
92.040184
20
95.833278
11
93.190223
21
95.833278
0
LINE
8
hole
62
5
39
2
10
93.190223
20
95.833278
11
93.190223
21
95.106266
0
LINE
8
hole
62
5
39
2
10
93.190223
20
95.106266
11
93.190223
21
77.432609
0
LINE
8
hole
62
5
39
2
10
93.190223
20
77.432609
11
92.040184
21
77.432609
0
LINE
8
hole
62
5
39
2
10
92.040184
20
77.432609
11
92.040184
21
76.570065
0
LINE
8
hole
62
5
39
2
10
92.040184
20
76.570065
11
91.245013
21
76.570065
0
LINE
8
hole
62
5
39
2
10
91.245013
20
76.570065
11
71.914438
21
76.570065
0
LINE
8
hole
62
5
39
2
10
71.914438
20
76.570065
11
71.914438
21
77.432609
0
LINE
8
hole
62
5
39
2
10
99.299825
20
76.604144
11
99.299824
21
77.432609
0
LINE
8
hole
62
5
39
2
10
99.299824
20
77.432609
11
98.149779
21
77.432609
0
LINE
8
hole
62
5
39
2
10
98.149779
20
77.432609
11
98.149780
21
78.159622
0
LINE
8
hole
62
5
39
2
10
98.149780
20
78.159622
11
98.149779
21
95.833278
0
LINE
8
hole
62
5
39
2
10
98.149779
20
95.833278
11
99.299824
21
95.833278
0
LINE
8
hole
62
5
39
2
10
99.299824
20
95.833278
11
99.299824
21
96.695871
0
LINE
8
hole
62
5
39
2
10
99.299824
20
96.695871
11
100.094995
21
96.695871
0
LINE
8
hole
62
5
39
2
10
100.094995
20
96.695871
11
119.425576
21
96.695871
0
LINE
8
hole
62
5
39
2
10
119.425576
20
96.695871
11
119.425576
21
95.833278
0
LINE
8
hole
62
5
39
2
10
119.425576
20
95.833278
11
120.575609
21
95.833278
0
LINE
8
hole
62
5
39
2
10
120.575609
20
95.833278
11
120.575609
21
95.106266
0
LINE
8
hole
62
5
39
2
10
120.575609
20
95.106266
11
120.575609
21
77.432609
0
LINE
8
hole
62
5
39
2
10
120.575609
20
77.432609
11
119.425576
21
77.432609
0
LINE
8
hole
62
5
39
2
10
119.425576
20
77.432609
11
119.425577
21
76.570065
0
LINE
8
hole
62
5
39
2
10
119.425577
20
76.570065
11
118.630406
21
76.570065
0
LINE
8
hole
62
5
39
2
10
118.630406
20
76.570065
11
99.299824
21
76.570065
0
LINE
8
hole
62
5
39
2
10
99.299824
20
76.570065
11
99.299825
21
76.604144
0
LINE
8
hole
62
5
39
2
10
44.529052
20
76.604144
11
44.529052
21
77.432609
0
LINE
8
hole
62
5
39
2
10
44.529052
20
77.432609
11
43.379007
21
77.432609
0
LINE
8
hole
62
5
39
2
10
43.379007
20
77.432609
11
43.379007
21
78.159622
0
LINE
8
hole
62
5
39
2
10
43.379007
20
78.159622
11
43.379007
21
95.833278
0
LINE
8
hole
62
5
39
2
10
43.379007
20
95.833278
11
44.529052
21
95.833278
0
LINE
8
hole
62
5
39
2
10
44.529052
20
95.833278
11
44.529052
21
96.695871
0
LINE
8
hole
62
5
39
2
10
44.529052
20
96.695871
11
45.324222
21
96.695871
0
LINE
8
hole
62
5
39
2
10
45.324222
20
96.695871
11
64.654795
21
96.695871
0
LINE
8
hole
62
5
39
2
10
64.654795
20
96.695871
11
64.654795
21
95.833278
0
LINE
8
hole
62
5
39
2
10
64.654795
20
95.833278
11
65.804839
21
95.833278
0
LINE
8
hole
62
5
39
2
10
65.804839
20
95.833278
11
65.804839
21
95.106266
0
LINE
8
hole
62
5
39
2
10
65.804839
20
95.106266
11
65.804839
21
77.432609
0
LINE
8
hole
62
5
39
2
10
65.804839
20
77.432609
11
64.654795
21
77.432609
0
LINE
8
hole
62
5
39
2
10
64.654795
20
77.432609
11
64.654795
21
76.570065
0
LINE
8
hole
62
5
39
2
10
64.654795
20
76.570065
11
63.859624
21
76.570065
0
LINE
8
hole
62
5
39
2
10
63.859624
20
76.570065
11
44.529052
21
76.570065
0
LINE
8
hole
62
5
39
2
10
44.529052
20
76.570065
11
44.529052
21
76.604144
0
LINE
8
hole
62
5
39
2
10
10.296603
20
104.818001
11
9.146564
21
104.818001
0
LINE
8
hole
62
5
39
2
10
9.146564
20
104.818001
11
9.146564
21
105.545016
0
LINE
8
hole
62
5
39
2
10
9.146564
20
105.545016
11
9.146564
21
123.218719
0
LINE
8
hole
62
5
39
2
10
9.146564
20
123.218719
11
10.296603
21
123.218719
0
LINE
8
hole
62
5
39
2
10
10.296603
20
123.218719
11
10.296603
21
124.081215
0
LINE
8
hole
62
5
39
2
10
10.296603
20
124.081215
11
11.091830
21
124.081215
0
LINE
8
hole
62
5
39
2
10
11.091830
20
124.081215
11
30.423784
21
124.081215
0
LINE
8
hole
62
5
39
2
10
30.423784
20
124.081215
11
30.423784
21
123.218719
0
LINE
8
hole
62
5
39
2
10
30.423784
20
123.218719
11
31.573823
21
123.218719
0
LINE
8
hole
62
5
39
2
10
31.573823
20
123.218719
11
31.573823
21
122.491705
0
LINE
8
hole
62
5
39
2
10
31.573823
20
122.491705
11
31.573823
21
104.818001
0
LINE
8
hole
62
5
39
2
10
31.573823
20
104.818001
11
30.423784
21
104.818001
0
LINE
8
hole
62
5
39
2
10
30.423784
20
104.818001
11
30.423784
21
103.955457
0
LINE
8
hole
62
5
39
2
10
30.423784
20
103.955457
11
29.628556
21
103.955457
0
LINE
8
hole
62
5
39
2
10
29.628556
20
103.955457
11
10.296603
21
103.955457
0
LINE
8
hole
62
5
39
2
10
10.296603
20
103.955457
11
10.296603
21
104.818001
0
LINE
8
hole
62
5
39
2
10
157.494122
20
77.432609
11
156.344084
21
77.432609
0
LINE
8
hole
62
5
39
2
10
156.344084
20
77.432609
11
156.344084
21
78.159622
0
LINE
8
hole
62
5
39
2
10
156.344084
20
78.159622
11
156.344083
21
95.833278
0
LINE
8
hole
62
5
39
2
10
156.344083
20
95.833278
11
157.494122
21
95.833278
0
LINE
8
hole
62
5
39
2
10
157.494122
20
95.833278
11
157.494122
21
96.695871
0
LINE
8
hole
62
5
39
2
10
157.494122
20
96.695871
11
158.559793
21
96.695871
0
LINE
8
hole
62
5
39
2
10
158.559793
20
96.695871
11
184.466216
21
96.695871
0
LINE
8
hole
62
5
39
2
10
184.466216
20
96.695871
11
184.466216
21
95.833279
0
LINE
8
hole
62
5
39
2
10
184.466216
20
95.833279
11
185.616267
21
95.833278
0
LINE
8
hole
62
5
39
2
10
185.616267
20
95.833278
11
185.616267
21
95.106266
0
LINE
8
hole
62
5
39
2
10
185.616267
20
95.106266
11
185.616267
21
77.432609
0
LINE
8
hole
62
5
39
2
10
185.616267
20
77.432609
11
184.466216
21
77.432609
0
LINE
8
hole
62
5
39
2
10
184.466216
20
77.432609
11
184.466216
21
76.570064
0
LINE
8
hole
62
5
39
2
10
184.466216
20
76.570064
11
183.400546
21
76.570065
0
LINE
8
hole
62
5
39
2
10
183.400546
20
76.570065
11
157.494122
21
76.570065
0
LINE
8
hole
62
5
39
2
10
157.494122
20
76.570065
11
157.494122
21
77.432609
0
LINE
8
hole
62
5
39
2
10
167.763287
20
21.833408
11
167.763287
21
22.661873
0
LINE
8
hole
62
5
39
2
10
167.763287
20
22.661873
11
166.613237
21
22.661873
0
LINE
8
hole
62
5
39
2
10
166.613237
20
22.661873
11
166.613236
21
23.388941
0
LINE
8
hole
62
5
39
2
10
166.613236
20
23.388941
11
166.613236
21
41.063947
0
LINE
8
hole
62
5
39
2
10
166.613236
20
41.063947
11
167.763287
21
41.063947
0
LINE
8
hole
62
5
39
2
10
167.763287
20
41.063947
11
167.763287
21
41.925086
0
LINE
8
hole
62
5
39
2
10
167.763287
20
41.925086
11
168.828986
21
41.925087
0
LINE
8
hole
62
5
39
2
10
168.828986
20
41.925087
11
194.736096
21
41.925086
0
LINE
8
hole
62
5
39
2
10
194.736096
20
41.925086
11
194.736096
21
41.063947
0
LINE
8
hole
62
5
39
2
10
194.736096
20
41.063947
11
195.886147
21
41.063947
0
LINE
8
hole
62
5
39
2
10
195.886147
20
41.063947
11
195.886147
21
40.336879
0
LINE
8
hole
62
5
39
2
10
195.886147
20
40.336879
11
195.886147
21
22.661873
0
LINE
8
hole
62
5
39
2
10
195.886147
20
22.661873
11
194.736096
21
22.661872
0
LINE
8
hole
62
5
39
2
10
194.736096
20
22.661872
11
194.736096
21
21.799328
0
LINE
8
hole
62
5
39
2
10
194.736096
20
21.799328
11
193.670397
21
21.799328
0
LINE
8
hole
62
5
39
2
10
193.670397
20
21.799328
11
167.763287
21
21.799328
0
LINE
8
hole
62
5
39
2
10
167.763287
20
21.799328
11
167.763287
21
21.833408
0
LINE
8
hole
62
5
39
2
10
147.224970
20
104.818001
11
146.074919
21
104.818001
0
LINE
8
hole
62
5
39
2
10
146.074919
20
104.818001
11
146.074919
21
105.545016
0
LINE
8
hole
62
5
39
2
10
146.074919
20
105.545016
11
146.074919
21
123.218719
0
LINE
8
hole
62
5
39
2
10
146.074919
20
123.218719
11
147.224970
21
123.218719
0
LINE
8
hole
62
5
39
2
10
147.224970
20
123.218719
11
147.224970
21
124.081215
0
LINE
8
hole
62
5
39
2
10
147.224970
20
124.081215
11
149.102140
21
124.081215
0
LINE
8
hole
62
5
39
2
10
149.102140
20
124.081215
11
194.736096
21
124.081215
0
LINE
8
hole
62
5
39
2
10
194.736096
20
124.081215
11
194.736096
21
123.218719
0
LINE
8
hole
62
5
39
2
10
194.736096
20
123.218719
11
195.886147
21
123.218719
0
LINE
8
hole
62
5
39
2
10
195.886147
20
123.218719
11
195.886147
21
122.491705
0
LINE
8
hole
62
5
39
2
10
195.886147
20
122.491705
11
195.886147
21
104.818002
0
LINE
8
hole
62
5
39
2
10
195.886147
20
104.818002
11
194.736096
21
104.818001
0
LINE
8
hole
62
5
39
2
10
194.736096
20
104.818001
11
194.736096
21
103.955457
0
LINE
8
hole
62
5
39
2
10
194.736096
20
103.955457
11
190.459370
21
103.955457
0
LINE
8
hole
62
5
39
2
10
190.459370
20
103.955457
11
190.459370
21
102.877277
0
LINE
8
hole
62
5
39
2
10
190.459370
20
102.877277
11
185.715450
21
102.877277
0
LINE
8
hole
62
5
39
2
10
185.715450
20
102.877277
11
185.715450
21
103.955457
0
LINE
8
hole
62
5
39
2
10
185.715450
20
103.955457
11
184.551093
21
103.955457
0
LINE
8
hole
62
5
39
2
10
184.551093
20
103.955457
11
156.245616
21
103.955457
0
LINE
8
hole
62
5
39
2
10
156.245616
20
103.955457
11
156.245616
21
102.877277
0
LINE
8
hole
62
5
39
2
10
156.245616
20
102.877277
11
151.501683
21
102.877277
0
LINE
8
hole
62
5
39
2
10
151.501683
20
102.877277
11
151.501683
21
103.955457
0
LINE
8
hole
62
5
39
2
10
151.501683
20
103.955457
11
147.224970
21
103.955457
0
LINE
8
hole
62
5
39
2
10
147.224970
20
103.955457
11
147.224970
21
104.818001
0
LINE
8
hole
62
5
39
2
10
21.177443
20
28.555796
11
21.177443
21
32.580986
0
LINE
8
hole
62
5
39
2
10
21.177443
20
32.580986
11
22.361982
21
32.580986
0
LINE
8
hole
62
5
39
2
10
22.361982
20
32.580986
11
22.361982
21
41.594438
0
LINE
8
hole
62
5
39
2
10
22.361982
20
41.594438
11
24.843202
21
41.594438
0
LINE
8
hole
62
5
39
2
10
24.843202
20
41.594438
11
24.843202
21
43.003218
0
LINE
8
hole
62
5
39
2
10
24.843202
20
43.003218
11
29.587128
21
43.003218
0
LINE
8
hole
62
5
39
2
10
29.587128
20
43.003218
11
29.587128
21
41.594438
0
LINE
8
hole
62
5
39
2
10
29.587128
20
41.594438
11
31.690264
21
41.594438
0
LINE
8
hole
62
5
39
2
10
31.690264
20
41.594438
11
31.690264
21
43.003218
0
LINE
8
hole
62
5
39
2
10
31.690264
20
43.003218
11
36.434191
21
43.003218
0
LINE
8
hole
62
5
39
2
10
36.434191
20
43.003218
11
36.434191
21
41.925086
0
LINE
8
hole
62
5
39
2
10
36.434191
20
41.925086
11
37.328020
21
41.925086
0
LINE
8
hole
62
5
39
2
10
37.328020
20
41.925086
11
59.056962
21
41.925086
0
LINE
8
hole
62
5
39
2
10
59.056962
20
41.925086
11
59.056962
21
43.003218
0
LINE
8
hole
62
5
39
2
10
59.056962
20
43.003218
11
63.800886
21
43.003218
0
LINE
8
hole
62
5
39
2
10
63.800886
20
43.003218
11
63.800886
21
41.594438
0
LINE
8
hole
62
5
39
2
10
63.800886
20
41.594438
11
65.904028
21
41.594438
0
LINE
8
hole
62
5
39
2
10
65.904028
20
41.594438
11
65.904028
21
43.003218
0
LINE
8
hole
62
5
39
2
10
65.904028
20
43.003218
11
70.647952
21
43.003218
0
LINE
8
hole
62
5
39
2
10
70.647952
20
43.003218
11
70.647952
21
41.594438
0
LINE
8
hole
62
5
39
2
10
70.647952
20
41.594438
11
73.127736
21
41.594438
0
LINE
8
hole
62
5
39
2
10
73.127736
20
41.594438
11
73.127736
21
32.580986
0
LINE
8
hole
62
5
39
2
10
73.127736
20
32.580986
11
74.313716
21
32.580986
0
LINE
8
hole
62
5
39
2
10
74.313716
20
32.580986
11
74.313716
21
28.555796
0
LINE
8
hole
62
5
39
2
10
74.313716
20
28.555796
11
73.127736
21
28.555796
0
LINE
8
hole
62
5
39
2
10
73.127736
20
28.555796
11
73.127736
21
23.912523
0
LINE
8
hole
62
5
39
2
10
73.127736
20
23.912523
11
70.647952
21
23.912523
0
LINE
8
hole
62
5
39
2
10
70.647952
20
23.912523
11
70.647952
21
22.588524
0
LINE
8
hole
62
5
39
2
10
70.647952
20
22.588524
11
65.904028
21
22.588525
0
LINE
8
hole
62
5
39
2
10
65.904028
20
22.588525
11
65.904028
21
23.912523
0
LINE
8
hole
62
5
39
2
10
65.904028
20
23.912523
11
63.800886
21
23.912523
0
LINE
8
hole
62
5
39
2
10
63.800886
20
23.912523
11
63.800886
21
22.588525
0
LINE
8
hole
62
5
39
2
10
63.800886
20
22.588525
11
61.231981
21
22.588524
0
LINE
8
hole
62
5
39
2
10
61.231981
20
22.588524
11
61.231981
21
21.799328
0
LINE
8
hole
62
5
39
2
10
61.231981
20
21.799328
11
60.166282
21
21.799328
0
LINE
8
hole
62
5
39
2
10
60.166282
20
21.799328
11
34.259172
21
21.799328
0
LINE
8
hole
62
5
39
2
10
34.259172
20
21.799328
11
34.259172
21
22.588525
0
LINE
8
hole
62
5
39
2
10
34.259172
20
22.588525
11
31.690264
21
22.588525
0
LINE
8
hole
62
5
39
2
10
31.690264
20
22.588525
11
31.690264
21
23.912523
0
LINE
8
hole
62
5
39
2
10
31.690264
20
23.912523
11
29.587128
21
23.912523
0
LINE
8
hole
62
5
39
2
10
29.587128
20
23.912523
11
29.587128
21
22.588524
0
LINE
8
hole
62
5
39
2
10
29.587128
20
22.588524
11
24.843202
21
22.588524
0
LINE
8
hole
62
5
39
2
10
24.843202
20
22.588524
11
24.843201
21
23.912523
0
LINE
8
hole
62
5
39
2
10
24.843201
20
23.912523
11
22.361982
21
23.912523
0
LINE
8
hole
62
5
39
2
10
22.361982
20
23.912523
11
22.361982
21
28.555796
0
LINE
8
hole
62
5
39
2
10
22.361982
20
28.555796
11
21.177443
21
28.555796
0
LINE
8
hole
62
5
39
2
10
140.377895
20
50.047217
11
139.227856
21
50.047216
0
LINE
8
hole
62
5
39
2
10
139.227856
20
50.047216
11
139.227856
21
50.774231
0
LINE
8
hole
62
5
39
2
10
139.227856
20
50.774231
11
139.227856
21
68.447935
0
LINE
8
hole
62
5
39
2
10
139.227856
20
68.447935
11
140.377895
21
68.447935
0
LINE
8
hole
62
5
39
2
10
140.377895
20
68.447935
11
140.377895
21
69.310430
0
LINE
8
hole
62
5
39
2
10
140.377895
20
69.310430
11
142.525594
21
69.310430
0
LINE
8
hole
62
5
39
2
10
142.525594
20
69.310430
11
194.736096
21
69.310430
0
LINE
8
hole
62
5
39
2
10
194.736096
20
69.310430
11
194.736096
21
68.447935
0
LINE
8
hole
62
5
39
2
10
194.736096
20
68.447935
11
195.886147
21
68.447935
0
LINE
8
hole
62
5
39
2
10
195.886147
20
68.447935
11
195.886147
21
67.720920
0
LINE
8
hole
62
5
39
2
10
195.886147
20
67.720920
11
195.886147
21
50.047217
0
LINE
8
hole
62
5
39
2
10
195.886147
20
50.047217
11
194.736096
21
50.047216
0
LINE
8
hole
62
5
39
2
10
194.736096
20
50.047216
11
194.736096
21
49.184721
0
LINE
8
hole
62
5
39
2
10
194.736096
20
49.184721
11
187.035124
21
49.184721
0
LINE
8
hole
62
5
39
2
10
187.035124
20
49.184721
11
187.035125
21
48.106541
0
LINE
8
hole
62
5
39
2
10
187.035125
20
48.106541
11
182.291192
21
48.106541
0
LINE
8
hole
62
5
39
2
10
182.291192
20
48.106541
11
182.291192
21
49.184721
0
LINE
8
hole
62
5
39
2
10
182.291192
20
49.184721
11
181.126835
21
49.184721
0
LINE
8
hole
62
5
39
2
10
181.126835
20
49.184721
11
152.821358
21
49.184721
0
LINE
8
hole
62
5
39
2
10
152.821358
20
49.184721
11
152.821358
21
48.106540
0
LINE
8
hole
62
5
39
2
10
152.821358
20
48.106540
11
148.077437
21
48.106540
0
LINE
8
hole
62
5
39
2
10
148.077437
20
48.106540
11
148.077437
21
49.184721
0
LINE
8
hole
62
5
39
2
10
148.077437
20
49.184721
11
140.377895
21
49.184721
0
LINE
8
hole
62
5
39
2
10
140.377895
20
49.184721
11
140.377895
21
50.047217
0
LINE
8
hole
62
5
39
2
10
78.761501
20
22.661873
11
77.611462
21
22.661873
0
LINE
8
hole
62
5
39
2
10
77.611462
20
22.661873
11
77.611462
21
23.388941
0
LINE
8
hole
62
5
39
2
10
77.611462
20
23.388941
11
77.611462
21
41.063947
0
LINE
8
hole
62
5
39
2
10
77.611462
20
41.063947
11
78.761501
21
41.063947
0
LINE
8
hole
62
5
39
2
10
78.761501
20
41.063947
11
78.761501
21
41.925086
0
LINE
8
hole
62
5
39
2
10
78.761501
20
41.925086
11
80.906303
21
41.925086
0
LINE
8
hole
62
5
39
2
10
80.906303
20
41.925086
11
133.046390
21
41.925086
0
LINE
8
hole
62
5
39
2
10
133.046390
20
41.925086
11
133.552558
21
41.993727
0
LINE
8
hole
62
5
39
2
10
133.552558
20
41.993727
11
134.802194
21
41.925086
0
LINE
8
hole
62
5
39
2
10
134.802194
20
41.925086
11
163.926457
21
41.925086
0
LINE
8
hole
62
5
39
2
10
163.926457
20
41.925086
11
163.926457
21
41.063947
0
LINE
8
hole
62
5
39
2
10
163.926457
20
41.063947
11
165.076496
21
41.063947
0
LINE
8
hole
62
5
39
2
10
165.076496
20
41.063947
11
165.076496
21
40.336879
0
LINE
8
hole
62
5
39
2
10
165.076496
20
40.336879
11
165.076497
21
22.661873
0
LINE
8
hole
62
5
39
2
10
165.076497
20
22.661873
11
163.926457
21
22.661873
0
LINE
8
hole
62
5
39
2
10
163.926457
20
22.661873
11
163.926458
21
21.799328
0
LINE
8
hole
62
5
39
2
10
163.926458
20
21.799328
11
162.728420
21
21.799328
0
LINE
8
hole
62
5
39
2
10
162.728420
20
21.799328
11
133.604156
21
21.799328
0
LINE
8
hole
62
5
39
2
10
133.604156
20
21.799328
11
133.097981
21
21.730639
0
LINE
8
hole
62
5
39
2
10
133.097981
20
21.730639
11
130.901587
21
21.799329
0
LINE
8
hole
62
5
39
2
10
130.901587
20
21.799329
11
78.761501
21
21.799328
0
LINE
8
hole
62
5
39
2
10
78.761501
20
21.799328
11
78.761501
21
22.661873
0
LINE
8
boundary
62
5
39
2
10
14.279402
20
7.177401
11
14.911162
21
6.808293
0
LINE
8
boundary
62
5
39
2
10
14.911162
20
6.808293
11
15.644303
21
6.670458
0
LINE
8
boundary
62
5
39
2
10
15.644303
20
6.670458
11
23.246071
21
6.669036
0
LINE
8
boundary
62
5
39
2
10
23.246071
20
6.669036
11
207.686541
21
6.667500
0
LINE
8
boundary
62
5
39
2
10
207.686541
20
6.667500
11
208.358738
21
6.766816
0
LINE
8
boundary
62
5
39
2
10
208.358738
20
6.766816
11
208.966611
21
7.070382
0
LINE
8
boundary
62
5
39
2
10
208.966611
20
7.070382
11
209.449854
21
7.548067
0
LINE
8
boundary
62
5
39
2
10
209.449854
20
7.548067
11
209.760421
21
8.152438
0
LINE
8
boundary
62
5
39
2
10
209.760421
20
8.152438
11
209.866436
21
8.810001
0
LINE
8
boundary
62
5
39
2
10
209.866436
20
8.810001
11
209.867500
21
13.889884
0
LINE
8
boundary
62
5
39
2
10
209.867500
20
13.889884
11
209.867500
21
137.055375
0
LINE
8
boundary
62
5
39
2
10
209.867500
20
137.055375
11
209.741325
21
137.778485
0
LINE
8
boundary
62
5
39
2
10
209.741325
20
137.778485
11
209.371591
21
138.429124
0
LINE
8
boundary
62
5
39
2
10
209.371591
20
138.429124
11
208.801629
21
138.914090
0
LINE
8
boundary
62
5
39
2
10
208.801629
20
138.914090
11
208.100169
21
139.174853
0
LINE
8
boundary
62
5
39
2
10
208.100169
20
139.174853
11
199.853347
21
139.211444
0
LINE
8
boundary
62
5
39
2
10
199.853347
20
139.211444
11
8.823558
21
139.211445
0
LINE
8
boundary
62
5
39
2
10
8.823558
20
139.211445
11
8.100488
21
139.085304
0
LINE
8
boundary
62
5
39
2
10
8.100488
20
139.085304
11
7.449832
21
138.715582
0
LINE
8
boundary
62
5
39
2
10
7.449832
20
138.715582
11
6.964874
21
138.145574
0
LINE
8
boundary
62
5
39
2
10
6.964874
20
138.145574
11
6.704099
21
137.444115
0
LINE
8
boundary
62
5
39
2
10
6.704099
20
137.444115
11
6.667500
21
135.706621
0
LINE
8
boundary
62
5
39
2
10
6.667500
20
135.706621
11
6.667500
21
102.918457
0
LINE
8
boundary
62
5
39
2
10
6.667500
20
102.918457
11
6.694528
21
102.379778
0
LINE
8
boundary
62
5
39
2
10
6.694528
20
102.379778
11
6.803635
21
101.868424
0
LINE
8
boundary
62
5
39
2
10
6.803635
20
101.868424
11
7.050750
21
101.360121
0
LINE
8
boundary
62
5
39
2
10
7.050750
20
101.360121
11
7.434435
21
100.917367
0
LINE
8
boundary
62
5
39
2
10
7.434435
20
100.917367
11
7.910551
21
100.585992
0
LINE
8
boundary
62
5
39
2
10
7.910551
20
100.585992
11
8.482476
21
100.469672
0
LINE
8
boundary
62
5
39
2
10
8.482476
20
100.469672
11
10.199637
21
100.469381
0
LINE
8
boundary
62
5
39
2
10
10.199637
20
100.469381
11
10.721183
21
100.447241
0
LINE
8
boundary
62
5
39
2
10
10.721183
20
100.447241
11
11.228492
21
100.347780
0
LINE
8
boundary
62
5
39
2
10
11.228492
20
100.347780
11
11.751553
21
100.249482
0
LINE
8
boundary
62
5
39
2
10
11.751553
20
100.249482
11
12.270792
21
100.065433
0
LINE
8
boundary
62
5
39
2
10
12.270792
20
100.065433
11
12.746914
21
99.734106
0
LINE
8
boundary
62
5
39
2
10
12.746914
20
99.734106
11
13.130593
21
99.291304
0
LINE
8
boundary
62
5
39
2
10
13.130593
20
99.291304
11
13.377707
21
98.783002
0
LINE
8
boundary
62
5
39
2
10
13.377707
20
98.783002
11
13.486821
21
98.271647
0
LINE
8
boundary
62
5
39
2
10
13.486821
20
98.271647
11
13.513848
21
97.733066
0
LINE
8
boundary
62
5
39
2
10
13.513848
20
97.733066
11
13.513848
21
96.857882
0
LINE
8
boundary
62
5
39
2
10
13.513848
20
96.857882
11
13.513848
21
75.582189
0
LINE
8
boundary
62
5
39
2
10
13.513848
20
75.582189
11
13.532711
21
75.071396
0
LINE
8
boundary
62
5
39
2
10
13.532711
20
75.071396
11
13.624468
21
74.567706
0
LINE
8
boundary
62
5
39
2
10
13.624468
20
74.567706
11
13.842759
21
74.060140
0
LINE
8
boundary
62
5
39
2
10
13.842759
20
74.060140
11
14.205739
21
73.602562
0
LINE
8
boundary
62
5
39
2
10
14.205739
20
73.602562
11
14.668920
21
73.248465
0
LINE
8
boundary
62
5
39
2
10
14.668920
20
73.248465
11
15.266152
21
73.085151
0
LINE
8
boundary
62
5
39
2
10
15.266152
20
73.085151
11
15.809712
21
73.083989
0
LINE
8
boundary
62
5
39
2
10
15.809712
20
73.083989
11
23.939199
21
73.083989
0
LINE
8
boundary
62
5
39
2
10
23.939199
20
73.083989
11
24.490498
21
73.052789
0
LINE
8
boundary
62
5
39
2
10
24.490498
20
73.052789
11
25.004135
21
72.935645
0
LINE
8
boundary
62
5
39
2
10
25.004135
20
72.935645
11
25.526614
21
72.844226
0
LINE
8
boundary
62
5
39
2
10
25.526614
20
72.844226
11
26.043274
21
72.636826
0
LINE
8
boundary
62
5
39
2
10
26.043274
20
72.636826
11
26.507744
21
72.284764
0
LINE
8
boundary
62
5
39
2
10
26.507744
20
72.284764
11
26.872596
21
71.828590
0
LINE
8
boundary
62
5
39
2
10
26.872596
20
71.828590
11
27.095705
21
71.314572
0
LINE
8
boundary
62
5
39
2
10
27.095705
20
71.314572
11
27.187705
21
70.810532
0
LINE
8
boundary
62
5
39
2
10
27.187705
20
70.810532
11
27.206539
21
69.427790
0
LINE
8
boundary
62
5
39
2
10
27.206539
20
69.427790
11
27.206538
21
48.152516
0
LINE
8
boundary
62
5
39
2
10
27.206538
20
48.152516
11
27.180516
21
47.616938
0
LINE
8
boundary
62
5
39
2
10
27.180516
20
47.616938
11
27.073280
21
47.106311
0
LINE
8
boundary
62
5
39
2
10
27.073280
20
47.106311
11
26.828606
21
46.597234
0
LINE
8
boundary
62
5
39
2
10
26.828606
20
46.597234
11
26.446792
21
46.153074
0
LINE
8
boundary
62
5
39
2
10
26.446792
20
46.153074
11
25.971821
21
45.819568
0
LINE
8
boundary
62
5
39
2
10
25.971821
20
45.819568
11
25.452727
21
45.633242
0
LINE
8
boundary
62
5
39
2
10
25.452727
20
45.633242
11
24.823217
21
45.557762
0
LINE
8
boundary
62
5
39
2
10
24.823217
20
45.557762
11
24.259080
21
45.554855
0
LINE
8
boundary
62
5
39
2
10
24.259080
20
45.554855
11
16.136375
21
45.554855
0
LINE
8
boundary
62
5
39
2
10
16.136375
20
45.554855
11
15.617705
21
45.533490
0
LINE
8
boundary
62
5
39
2
10
15.617705
20
45.533490
11
15.110965
21
45.435677
0
LINE
8
boundary
62
5
39
2
10
15.110965
20
45.435677
11
14.598769
21
45.204392
0
LINE
8
boundary
62
5
39
2
10
14.598769
20
45.204392
11
14.147089
21
44.832951
0
LINE
8
boundary
62
5
39
2
10
14.147089
20
44.832951
11
13.802076
21
44.364279
0
LINE
8
boundary
62
5
39
2
10
13.802076
20
44.364279
11
13.602833
21
43.846529
0
LINE
8
boundary
62
5
39
2
10
13.602833
20
43.846529
11
13.518015
21
43.207227
0
LINE
8
boundary
62
5
39
2
10
13.518015
20
43.207227
11
13.513848
21
41.618171
0
LINE
8
boundary
62
5
39
2
10
13.513848
20
41.618171
11
13.513848
21
8.825120
0
LINE
8
boundary
62
5
39
2
10
13.513848
20
8.825120
11
13.639231
21
8.104291
0
LINE
8
boundary
62
5
39
2
10
13.639231
20
8.104291
11
14.006702
21
7.455080
0
LINE
8
boundary
62
5
39
2
10
14.006702
20
7.455080
11
14.279402
21
7.177401
0
LINE
8
annotation
62
1
39
211
10
202.789281
20
61.965575
11
202.789281
21
83.913370
0
LINE
8
annotation
62
1
39
211
10
202.789281
20
83.913370
11
197.910005
21
79.032717
0
LINE
8
frame
62
5
39
2
10
0.000000
20
0.000000
11
215.900000
21
0.000000
0
LINE
8
frame
62
5
39
2
10
215.900000
20
0.000000
11
215.900000
21
279.400000
0
LINE
8
frame
62
5
39
2
10
215.900000
20
279.400000
11
0.000000
21
279.400000
0
LINE
8
frame
62
5
39
2
10
0.000000
20
279.400000
11
0.000000
21
0.000000
0
ENDSEC
0
EOF
